<svg width="250" height="250" viewBox="0 0 250 250" fill="none" xmlns="http://www.w3.org/2000/svg">
<path d="M246.146 48.6111C241.333 40.3403 232.479 34.7222 222.222 34.7222H125V48.6111H246.146ZM0 173.611H250V187.5H0V173.611ZM125 118.056H250V131.944H125V118.056ZM125 90.2778H250V104.167H125V90.2778ZM0 145.833H250V159.722H0V145.833ZM27.7778 215.278H222.222C232.479 215.278 241.333 209.66 246.146 201.389H3.85417C8.66667 209.66 17.5208 215.278 27.7778 215.278ZM125 62.5H250V76.3889H125V62.5Z" fill="#B22334"/>
<path d="M0.472222 192.215C0.590278 192.861 0.722222 193.507 0.881944 194.139C1.0625 194.84 1.28472 195.514 1.52083 196.194C2.13889 197.993 2.88889 199.729 3.83333 201.354L3.85417 201.389H246.146L246.16 201.361C247.097 199.743 247.847 198.007 248.465 196.215C248.701 195.528 248.931 194.84 249.111 194.125C249.271 193.5 249.403 192.861 249.521 192.215C249.806 190.688 250 189.118 250 187.5H0C0 189.118 0.194444 190.681 0.472222 192.215V192.215ZM0 159.722H250V173.611H0V159.722ZM0 131.944V145.833H250V131.944H125H0ZM125 104.167H250V118.056H125V104.167ZM125 76.3889H250V90.2778H125V76.3889ZM0 62.5C0 60.8819 0.208333 59.3264 0.472222 57.7847C0.194444 59.3194 0 60.8819 0 62.5ZM3.85417 48.6111L3.83333 48.6458L3.85417 48.6111ZM0.888889 55.8611C1.0625 55.1528 1.30556 54.4792 1.52778 53.7986C1.29167 54.4792 1.06944 55.1597 0.888889 55.8611ZM125 62.5H250C250 60.8819 249.806 59.3125 249.521 57.7778C249.403 57.1389 249.278 56.5 249.111 55.875C248.924 55.1597 248.701 54.4653 248.458 53.7778C247.84 51.9861 247.09 50.2569 246.153 48.6389C246.16 48.6319 246.153 48.6181 246.146 48.6111H125V62.5Z" fill="#EEEEEE"/>
<path d="M125 34.7222H27.7778C12.4375 34.7222 0 47.1597 0 62.5V131.944H125V34.7222Z" fill="#3C3B6E"/>
<path d="M13.8959 53.6528L18.1875 56.7708L16.5487 61.8056L20.8334 58.6944L25.125 61.8056L23.4862 56.7708L27.7778 53.6528H22.4723L20.8334 48.6111L19.2014 53.6528H13.8959ZM27.7848 67.5417L32.0764 70.6597L30.4375 75.6944L34.7223 72.5833L39.0139 75.6944L37.375 70.6597L41.6667 67.5417H36.3612L34.7223 62.5L33.0903 67.5417H27.7848ZM55.5625 67.5417L59.8542 70.6597L58.2153 75.6944L62.5 72.5833L66.7917 75.6944L65.1528 70.6597L69.4445 67.5417H64.1389L62.5 62.5L60.8681 67.5417H55.5625ZM83.3403 67.5417L87.632 70.6597L85.9931 75.6944L90.2778 72.5833L94.5695 75.6944L92.9306 70.6597L97.2223 67.5417H91.9167L90.2778 62.5L88.6459 67.5417H83.3403ZM27.7848 95.3194L32.0764 98.4375L30.4375 103.472L34.7223 100.361L39.0139 103.472L37.375 98.4375L41.6667 95.3194H36.3612L34.7223 90.2778L33.0903 95.3194H27.7848ZM55.5625 95.3194L59.8542 98.4375L58.2153 103.472L62.5 100.361L66.7917 103.472L65.1528 98.4375L69.4445 95.3194H64.1389L62.5 90.2778L60.8681 95.3194H55.5625ZM83.3403 95.3194L87.632 98.4375L85.9931 103.472L90.2778 100.361L94.5695 103.472L92.9306 98.4375L97.2223 95.3194H91.9167L90.2778 90.2778L88.6459 95.3194H83.3403ZM41.6737 53.6528L45.9653 56.7708L44.3264 61.8056L48.6112 58.6944L52.9028 61.8056L51.2639 56.7708L55.5556 53.6528H50.25L48.6112 48.6111L46.9792 53.6528H41.6737ZM69.4514 53.6528L73.7431 56.7708L72.1042 61.8056L76.3889 58.6944L80.6806 61.8056L79.0417 56.7708L83.3334 53.6528H78.0278L76.3889 48.6111L74.757 53.6528H69.4514ZM97.2292 53.6528L101.521 56.7708L99.882 61.8056L104.167 58.6944L108.458 61.8056L106.819 56.7708L111.111 53.6528H105.806L104.167 48.6111L102.535 53.6528H97.2292ZM13.8959 81.4306L18.1875 84.5486L16.5487 89.5833L20.8334 86.4722L25.125 89.5833L23.4862 84.5486L27.7778 81.4306H22.4723L20.8334 76.3889L19.2014 81.4306H13.8959ZM44.3264 89.5833L48.6112 86.4722L52.9028 89.5833L51.2639 84.5486L55.5556 81.4306H50.25L48.6112 76.3889L46.9792 81.4306H41.6737L45.9653 84.5486L44.3264 89.5833ZM69.4514 81.4306L73.7431 84.5486L72.1042 89.5833L76.3889 86.4722L80.6806 89.5833L79.0417 84.5486L83.3334 81.4306H78.0278L76.3889 76.3889L74.757 81.4306H69.4514ZM97.2292 81.4306L101.521 84.5486L99.882 89.5833L104.167 86.4722L108.458 89.5833L106.819 84.5486L111.111 81.4306H105.806L104.167 76.3889L102.535 81.4306H97.2292ZM13.8959 109.208L18.1875 112.326L16.5487 117.361L20.8334 114.25L25.125 117.361L23.4862 112.326L27.7778 109.208H22.4723L20.8334 104.167L19.2014 109.208H13.8959ZM44.3264 117.361L48.6112 114.25L52.9028 117.361L51.2639 112.326L55.5556 109.208H50.25L48.6112 104.167L46.9792 109.208H41.6737L45.9653 112.326L44.3264 117.361ZM69.4514 109.208L73.7431 112.326L72.1042 117.361L76.3889 114.25L80.6806 117.361L79.0417 112.326L83.3334 109.208H78.0278L76.3889 104.167L74.757 109.208H69.4514ZM97.2292 109.208L101.521 112.326L99.882 117.361L104.167 114.25L108.458 117.361L106.819 112.326L111.111 109.208H105.806L104.167 104.167L102.535 109.208H97.2292Z" fill="white"/>
</svg>
