<svg width="146" height="98" viewBox="0 0 146 98" fill="none" xmlns="http://www.w3.org/2000/svg">
<path d="M1 93.449L61.1479 65.8301L121.296 93.449H1Z" fill="white" stroke="white" stroke-width="2" stroke-linejoin="round"/>
<g filter="url(#filter0_d)">
<path d="M23.0078 73.7072L65.6358 54.1688L108.264 73.7072V93.2455H23.0078V73.7072Z" fill="white"/>
<path d="M23.0078 73.7072L65.6358 54.1688L108.264 73.7072V93.2455H23.0078V73.7072Z" stroke="white" stroke-width="2" stroke-linejoin="round"/>
</g>
<path d="M38.8941 24.7607L59.5016 37.9612L48.2552 59.697L38.8941 24.7607Z" fill="#AC4E47" stroke="white" stroke-width="2" stroke-linejoin="round"/>
<path d="M123.838 1.99996L112.592 23.7357L133.199 36.9363L123.838 1.99996Z" fill="#AC4E47" stroke="white" stroke-width="2" stroke-linejoin="round"/>
<g filter="url(#filter1_d)">
<path d="M59.5016 37.961L112.591 23.7356L133.199 36.9361L136.319 48.5816L125.073 70.3173L71.9831 84.5427L51.3755 71.3422L48.2552 59.6968L59.5016 37.961Z" fill="white"/>
<path d="M59.5016 37.961L112.591 23.7356L133.199 36.9361L136.319 48.5816L125.073 70.3173L71.9831 84.5427L51.3755 71.3422L48.2552 59.6968L59.5016 37.961Z" stroke="white" stroke-width="2" stroke-linejoin="round"/>
</g>
<path d="M95.0535 61.5644C94.8157 62.2155 94.0038 62.4331 93.4723 61.9881L89.5714 58.7224C88.9507 58.2027 89.1725 57.1992 89.9546 56.9897L95.6008 55.4768C96.3828 55.2673 97.0766 56.0253 96.7989 56.7858L95.0535 61.5644Z" fill="black"/>
<path fill-rule="evenodd" clip-rule="evenodd" d="M81.0653 66.8618C80.9711 66.7573 80.817 66.7726 80.6894 66.7496C79.7466 66.6636 77.52 66.7962 76.5757 66.8415C76.5757 66.8415 74.0521 67.2087 73.1183 67.3467C72.2148 67.5426 71.3202 67.7781 70.4378 68.052C69.5301 68.3339 67.1957 69.2367 66.31 69.5797C65.0398 70.1186 63.7766 70.68 62.5661 71.342C62.3644 71.4679 62.1265 71.5604 61.9779 71.7525C62.1874 71.7759 62.385 71.6811 62.5836 71.6317C63.8673 71.2236 65.1299 70.7533 66.402 70.3118C66.402 70.3118 71.7358 68.4552 74.5007 67.8714L77.2961 67.382C77.2961 67.382 77.2961 67.382 78.7357 67.2043L77.2961 67.382C77.2961 67.382 80.8885 66.946 81.0653 66.8618Z" fill="black"/>
<path fill-rule="evenodd" clip-rule="evenodd" d="M83.8755 67.7751C83.7645 67.6887 83.6154 67.7304 83.4858 67.7299C82.5423 67.8089 80.3726 68.3262 79.4505 68.5348C79.4505 68.5348 77.029 69.3346 76.1334 69.6327C75.2776 69.9825 74.4374 70.3697 73.6161 70.7928C72.7711 71.228 70.629 72.5224 69.8162 73.014C68.659 73.7653 67.5124 74.5375 66.4353 75.3997C66.2585 75.5587 66.0402 75.6911 65.9272 75.9061C66.1376 75.8928 66.3158 75.765 66.5028 75.6819C67.6961 75.0571 68.8579 74.3747 70.034 73.719C70.034 73.719 74.9643 70.9644 77.5858 69.9093L80.2538 68.9419C80.2538 68.9419 80.2538 68.9419 81.6407 68.517L80.2538 68.9419C80.2538 68.9419 83.7159 67.8888 83.8755 67.7751Z" fill="black"/>
<path fill-rule="evenodd" clip-rule="evenodd" d="M85.6585 68.7077C85.5337 68.6429 85.3947 68.7111 85.2671 68.7343C84.3539 68.9839 82.3148 69.8879 81.4461 70.2611C81.4461 70.2611 79.2109 71.4887 78.3846 71.9451C77.607 72.445 76.8514 72.9788 76.1209 73.5445C75.3693 74.1264 73.499 75.7895 72.7894 76.421C71.7885 77.3705 70.8018 78.3388 69.8999 79.3828C69.755 79.5714 69.5645 79.7413 69.4926 79.9733C69.6971 79.9219 69.8489 79.7638 70.0177 79.648C71.0771 78.8162 72.0951 77.9335 73.1321 77.0745C73.1321 77.0745 77.4778 73.4675 79.8632 71.9524L82.3102 70.515C82.3102 70.515 82.3102 70.515 83.5964 69.8444L82.3102 70.515C82.3102 70.515 85.5224 68.8486 85.6585 68.7077Z" fill="black"/>
<path fill-rule="evenodd" clip-rule="evenodd" d="M108.24 59.5803C108.269 59.4427 108.411 59.3789 108.51 59.2952C109.283 58.7493 111.278 57.7508 112.118 57.3179C112.118 57.3179 114.487 56.3741 115.365 56.0268C116.245 55.7447 117.138 55.5012 118.039 55.2973C118.966 55.0876 121.439 54.7022 122.378 54.5564C123.747 54.388 125.122 54.2426 126.501 54.2107C126.739 54.2189 126.991 54.18 127.216 54.2721C127.046 54.3971 126.827 54.4138 126.631 54.4703C125.315 54.7587 123.986 54.9828 122.664 55.2365C122.664 55.2365 117.116 56.2955 114.43 57.1723L111.764 58.1462C111.764 58.1462 111.764 58.1462 110.429 58.7121L111.764 58.1462C111.764 58.1462 108.435 59.5649 108.24 59.5803Z" fill="black"/>
<path fill-rule="evenodd" clip-rule="evenodd" d="M106.263 61.7763C106.316 61.646 106.466 61.6076 106.578 61.5423C107.435 61.139 109.572 60.5021 110.475 60.2218C110.475 60.2218 112.972 59.7037 113.897 59.514C114.813 59.3891 115.734 59.3043 116.657 59.26C117.606 59.2144 120.109 59.2644 121.058 59.2837C122.436 59.3557 123.815 59.4512 125.179 59.6593C125.412 59.7086 125.667 59.7141 125.872 59.8439C125.683 59.9375 125.465 59.916 125.262 59.9375C123.916 59.993 122.569 59.983 121.222 60.0032C121.222 60.0032 115.575 60.0828 112.777 60.4798L109.983 60.976C109.983 60.976 109.983 60.976 108.569 61.3015L109.983 60.976C109.983 60.976 106.458 61.7951 106.263 61.7763Z" fill="black"/>
<path fill-rule="evenodd" clip-rule="evenodd" d="M105.185 63.4755C105.261 63.357 105.415 63.3466 105.537 63.3028C106.453 63.0624 108.671 62.8257 109.61 62.7146C109.61 62.7146 112.159 62.6601 113.103 62.6422C114.027 62.6863 114.948 62.7708 115.863 62.8954C116.805 63.0236 119.257 63.5287 120.187 63.7208C121.528 64.0427 122.867 64.3879 124.17 64.8411C124.39 64.932 124.64 64.9839 124.818 65.1489C124.615 65.2065 124.405 65.1456 124.201 65.1297C122.867 64.939 121.544 64.6836 120.217 64.4581C120.217 64.4581 114.65 63.5073 111.826 63.3878L108.989 63.3665C108.989 63.3665 108.989 63.3665 107.539 63.4289L108.989 63.3665C108.989 63.3665 105.374 63.5295 105.185 63.4755Z" fill="black"/>
<defs>
<filter id="filter0_d" x="19.0078" y="50.1688" width="93.256" height="47.0767" filterUnits="userSpaceOnUse" color-interpolation-filters="sRGB">
<feFlood flood-opacity="0" result="BackgroundImageFix"/>
<feColorMatrix in="SourceAlpha" type="matrix" values="0 0 0 0 0 0 0 0 0 0 0 0 0 0 0 0 0 0 127 0"/>
<feOffset/>
<feGaussianBlur stdDeviation="1.5"/>
<feColorMatrix type="matrix" values="0 0 0 0 0 0 0 0 0 0 0 0 0 0 0 0 0 0 0.5 0"/>
<feBlend mode="normal" in2="BackgroundImageFix" result="effect1_dropShadow"/>
<feBlend mode="normal" in="SourceGraphic" in2="effect1_dropShadow" result="shape"/>
</filter>
<filter id="filter1_d" x="39.3499" y="15.2433" width="105.875" height="77.7919" filterUnits="userSpaceOnUse" color-interpolation-filters="sRGB">
<feFlood flood-opacity="0" result="BackgroundImageFix"/>
<feColorMatrix in="SourceAlpha" type="matrix" values="0 0 0 0 0 0 0 0 0 0 0 0 0 0 0 0 0 0 127 0"/>
<feOffset/>
<feGaussianBlur stdDeviation="1.5"/>
<feColorMatrix type="matrix" values="0 0 0 0 0 0 0 0 0 0 0 0 0 0 0 0 0 0 0.5 0"/>
<feBlend mode="normal" in2="BackgroundImageFix" result="effect1_dropShadow"/>
<feBlend mode="normal" in="SourceGraphic" in2="effect1_dropShadow" result="shape"/>
</filter>
</defs>
</svg>
