<?xml version="1.0" encoding="UTF-8"?>
<svg width="376px" height="402px" viewBox="0 0 376 402" version="1.1" xmlns="http://www.w3.org/2000/svg" xmlns:xlink="http://www.w3.org/1999/xlink">
    <title>Page 1</title>
    <g id="Page-1" stroke="none" stroke-width="1" fill="none" fill-rule="evenodd">
        <g id="KOCHKA-logo" transform="translate(-3.000000, -2.000000)" fill="#FFFFFF">
            <path d="M375.946726,207.718925 L375.784624,197.843792 L373.029048,15.153682 L372.947993,9.48761721 L367.274732,9.4066731 L196.00284,6.00703438 L186.242066,5.76420287 L16.4263641,2.364564 L3.37786169,2.12173264 L3.62100149,15.153682 L7.02495856,197.843792 L7.18705159,207.718925 L10.6720554,391.704127 L10.7531023,397.370192 L16.4263641,397.451136 L186.242066,400.203224 L196.00284,400.36512 L378.945433,403.360024 L375.946726,207.718925 Z M358.602738,197.843792 L358.440661,207.718925 L355.847153,380.452941 L196.00284,383.043134 L186.242066,383.20503 L22.261718,385.876167 L25.5846293,207.718925 L25.7467224,197.843792 L28.9075397,27.699968 L186.242066,24.5431613 L196.00284,24.3812729 L361.277292,21.0625778 L358.602738,197.843792 Z" id="frame"></path>
            <g id="head" transform="translate(35.000000, 40.000000)">
                <path d="M117.035047,0.493003045 C117.038151,0.492115256 117.041267,0.491227112 117.044383,0.490339323 C120.131395,-0.381625969 123.180653,1.22680079 125.78943,2.70812369 C127.456376,3.65457142 129.049973,4.72309693 130.636364,5.79735834 C130.695369,5.83731664 130.754362,5.87731082 130.813346,5.91728724 C135.753341,9.35549209 140.576356,12.9588606 145.50749,16.4112726 C153.519613,22.0404458 161.563455,27.624157 169.580003,33.2474698 C177.395378,38.7297735 185.206665,44.2214897 192.89211,49.8877818 C200.560353,55.5419976 208.134496,61.329403 215.518254,67.3515902 C222.744625,73.244843 229.740905,79.4247348 236.494179,85.8550331 C243.072323,92.1187507 249.41475,98.629671 255.527436,105.349448 C261.642067,112.070285 267.527347,118.999621 273.193895,126.102992 C275.006828,128.375827 276.795287,130.667846 278.565855,132.974075 C287.153676,144.222837 295.101643,155.961748 302.349453,168.119785 C304.262013,171.320019 306.108955,174.559318 307.892104,177.834127 C309.295953,180.48027 310.726354,183.121082 311.869625,185.895087 C312.121305,186.529086 312.410224,187.184416 312.348186,187.88768 C311.663996,187.653265 311.217322,187.052998 310.742289,186.548641 C308.755301,184.254127 306.970361,181.796243 305.167732,179.357892 C296.723476,167.762832 288.754262,155.830341 280.258592,144.270791 C274.717192,136.693062 268.997459,129.187623 262.830531,122.108932 C256.868159,115.265556 250.56102,108.723556 243.942611,102.515067 C237.049302,96.0489 229.795106,89.9698758 222.426062,84.0595777 C219.642141,81.8265201 216.835741,79.6215241 214.014064,77.4367719 C206.382148,71.5332169 198.696184,65.7005235 190.928843,59.9825553 C182.999158,54.1448875 175.069452,48.3072178 167.13993,42.4697294 C163.495111,39.7308862 159.746067,37.1394437 156.072179,34.4325691 C150.935437,30.6889033 145.800458,26.9399097 140.578627,23.3170083 C139.164164,22.3544532 137.74083,21.4043282 136.243054,20.5767429 C135.828281,20.336991 135.358572,20.2180039 134.88354,20.1895911 C134.913669,21.0171762 135.440111,21.6884785 135.838926,22.3757635 C137.265798,24.5974542 138.81321,26.7392311 140.264888,28.9449394 C144.311541,35.0168527 147.993046,41.411984 150.272508,48.3771931 C152.023752,53.6961129 153.181198,59.3755415 152.415481,64.98394 C151.841188,69.3598343 149.278129,73.4054139 145.600163,75.8224545 C145.029418,76.1865189 144.488793,76.5967593 143.902091,76.9324124 C143.061921,77.3195656 142.356464,77.983768 141.431206,78.1773428 C140.851591,78.4792549 140.271986,78.7918155 139.640972,78.9711865 C139.461947,79.0262386 139.28647,79.0848479 139.112765,79.1452296 C138.935514,79.2002817 138.760037,79.2588911 138.586334,79.3192728 C138.407308,79.3761026 138.230057,79.4347066 138.05458,79.496866 C137.875554,79.5554683 137.696528,79.6122999 137.521051,79.6709092 C137.336715,79.7295132 137.159464,79.7987763 136.987523,79.8804675 C136.90422,79.8929008 136.741141,79.9159879 136.657839,79.9284159 C136.276743,80.1663908 135.851346,80.3795045 135.38695,80.3226729 C134.562725,80.7329133 133.641027,80.899851 132.740586,81.0437015 C131.880922,81.3260748 130.980482,81.4965625 130.081815,81.5800313 C129.803552,81.7114486 129.496889,81.7256596 129.199107,81.7522968 C127.765139,82.0471016 126.306364,82.141226 124.868857,82.4289271 C124.092496,82.3880789 123.358671,82.6970947 122.576998,82.6118481 C122.006254,82.8160786 121.403594,82.8267342 120.806258,82.8107508 C120.198286,83.0007774 119.56195,83.0132107 118.932709,82.9492736 C118.487807,83.2298691 117.93301,83.1375224 117.436708,83.2280967 C110.203078,83.9224864 102.941094,84.9312143 96.0247406,87.2470321 C93.0414241,88.2312752 90.1171323,89.3904104 87.2518564,90.6781355 C85.8188834,91.3221064 84.4004185,91.998346 82.9953395,92.7012832 C77.0905673,95.6555487 71.4332291,99.1415196 66.0798842,103.006483 C63.4767684,104.884003 60.9457975,106.862383 58.4931681,108.932942 C56.0219327,111.018947 53.7284715,113.30493 51.2972913,115.436406 C46.4654165,120.076919 41.9348708,125.031764 37.7712372,130.283198 C35.6832157,132.906254 33.7033194,135.616329 31.9201703,138.45781 C30.1299295,141.356132 28.5665739,144.433827 27.6590468,147.731725 C26.8826856,150.560783 26.5813583,153.539026 26.9659938,156.455103 C27.5331983,161.090284 29.0593328,165.537226 29.8250606,170.136884 C30.6882731,175.022476 30.6492778,180.133605 29.1603679,184.896668 C27.8557958,189.197972 25.8829878,193.263083 23.7258382,197.195001 C21.7548039,200.800153 19.5799284,204.288065 17.4085988,207.77422 C15.8930988,210.240994 14.3049265,212.675791 13.0482148,215.288202 C12.5075975,216.550888 11.8375874,217.89528 12.1105547,219.308916 C12.289579,219.767098 12.7220715,220.115174 13.200651,220.21997 C14.533581,220.559157 15.9090521,220.296323 17.2561626,220.209304 C19.9645636,219.944691 22.6747391,219.417245 25.4061815,219.62326 C26.6185793,219.720922 27.9674624,220.179127 28.5435295,221.345906 C29.1692269,222.683188 28.8218159,224.21404 28.449588,225.574412 C27.6413216,228.172601 26.290666,230.552354 25.0126834,232.939199 C23.1019133,236.412932 21.0546586,239.812049 19.2413777,243.339068 C18.491605,244.827302 17.7719647,246.343955 17.2951581,247.945829 C16.8396207,249.52819 16.7049106,251.275702 17.348334,252.827865 C18.0608854,254.523867 19.353047,255.880683 20.6576173,257.139835 C23.1745864,259.466301 25.9645252,261.473114 28.8218159,263.355599 C34.9582593,267.342558 41.4350271,270.803849 48.1315832,273.744804 C55.4502951,276.900638 63.1642742,279.422455 71.1565397,279.990766 C79.9109827,280.67274 88.6707556,278.903895 96.9466127,276.12989 C100.475683,274.984423 103.900181,273.547677 107.340636,272.162462 C103.386158,266.999837 99.2136651,262.004137 95.3123601,256.802424 C94.7114743,255.898481 93.9085308,255.065556 93.6639239,253.980465 C94.3817903,254.053284 94.945448,254.543443 95.5179771,254.937695 C97.6609518,256.552012 99.6355235,258.379454 101.565795,260.242405 C104.91585,263.499458 108.129419,266.898597 111.187006,270.432706 C111.266133,270.52417 113.333517,269.432726 113.551891,269.328538 C114.357906,268.943888 115.160784,268.55265 115.961271,268.156447 C119.209406,266.548656 122.437687,264.88554 125.559969,263.046198 C127.137164,262.117127 128.876692,261.273472 130.340974,260.173272 C130.249926,260.230307 129.049432,259.278086 128.902689,259.177258 C128.402005,258.833279 127.900069,258.491121 127.397102,258.150502 C126.391019,257.469158 125.380867,256.793947 124.368228,256.12238 C122.365105,254.793769 120.347638,253.481396 118.328385,252.173054 C116.306654,250.863325 114.285107,249.553207 112.263549,248.243262 C110.02203,246.790844 107.662284,245.359323 105.519667,243.738069 C104.891118,243.26252 104.055849,242.763647 103.710639,242.023184 C105.087886,242.184778 106.318011,242.896929 107.583579,243.420841 C111.900718,245.434743 116.151029,247.591443 120.335044,249.869611 C124.556286,252.168199 128.714608,254.601043 132.823825,257.094808 C133.201479,257.323974 133.58489,257.553164 133.928335,257.832473 C136.611925,256.276776 139.09167,254.383605 141.773484,252.820797 C142.170525,252.579274 142.604793,252.389258 143.079827,252.398125 C142.991201,253.110276 142.487802,253.657276 142.088986,254.223789 C140.936852,255.699598 139.658866,257.075946 138.333029,258.399008 C137.893449,258.853613 137.400717,259.263864 137.028547,259.784134 C137.211652,259.530492 141.742727,262.830036 142.036429,263.030893 C144.25615,264.54902 146.420567,266.148356 148.595261,267.730003 C151.814325,270.071211 155.014426,272.462325 158.091324,274.989669 C161.740934,277.987617 165.362882,281.013271 168.874058,284.17444 C172.330818,287.286592 175.703204,290.496929 179.023292,293.755246 C182.406323,297.075335 185.72587,300.460617 188.979315,303.90843 C192.219996,307.342729 195.438174,310.796562 198.544854,314.353755 C199.917645,315.925651 201.272409,317.513494 202.608525,319.116629 C203.244331,319.879463 203.874254,320.646097 204.49128,321.424098 C204.804412,321.818923 205.115014,322.215702 205.422757,322.614754 C205.583976,322.823781 205.744416,323.03343 205.904032,323.2437 C205.987812,323.354092 206.337274,323.687488 206.337274,323.818854 C206.867254,324.635783 207.609926,325.390554 207.776553,326.385076 C206.695304,325.989044 205.885274,325.122388 204.993715,324.427999 C199.977492,320.062757 195.20235,315.432883 190.338561,310.900703 C180.671262,301.804394 170.989791,292.715154 160.953819,284.029061 C152.215327,276.468927 143.154237,269.2764 133.740406,262.577564 C127.946058,267.386783 121.502973,271.411051 114.634482,274.490513 C123.337522,285.096377 130.677508,296.751831 137.320886,308.741151 C140.050563,313.745729 142.74655,318.78405 145.011828,324.021275 C145.392922,324.987364 145.86618,325.942834 146.002667,326.985288 C145.896321,327.230385 145.658799,326.914269 145.540044,326.845007 C144.644927,325.884228 143.919963,324.781374 143.163107,323.714038 C139.430194,318.247718 135.874531,312.664204 132.230242,307.139278 C125.292621,296.611532 118.193704,286.179713 110.481494,276.204291 C103.476515,278.985409 96.1702179,280.965577 88.7841557,282.427166 C84.0763586,283.3382 79.3207,284.020172 74.5366866,284.345182 C66.7588953,284.895718 58.731183,284.442867 51.4000617,281.574733 C47.7167777,280.14332 44.3241841,278.044177 41.2471017,275.573849 C38.6840464,273.595457 36.4294104,271.238791 33.7777278,269.372284 C31.5443602,267.782812 28.8785009,267.033374 26.3952071,265.941193 C23.0575622,264.543534 19.945028,262.598897 17.2348554,260.19961 C14.5246813,257.885565 12.1601484,255.202134 9.92146361,252.435239 C7.8334425,249.803316 5.90494641,247.039956 4.22814908,244.125643 C2.57616605,241.261064 1.09434419,238.217112 0.520049489,234.933415 C0.133641266,232.853805 0.371158138,230.694265 1.06598397,228.706985 C2.14899019,225.691455 4.02608248,223.064843 5.71706028,220.372524 C9.52796533,214.606077 12.5625084,208.354782 15.0954324,201.931246 C16.7793207,197.66723 18.2203755,193.303775 19.321105,188.853277 C20.4413353,184.360159 21.0918476,179.753401 21.3045487,175.130643 C21.6803208,168.609424 21.4109006,162.047352 22.2705683,155.558087 C23.1015943,148.889819 25.1152747,142.34728 28.2223162,136.390447 C31.2495911,130.968347 34.9351829,126.035343 39.2755379,121.597464 C41.6613399,119.156618 44.1983427,116.867797 46.8163441,114.680562 C57.4567455,105.831086 69.1269757,98.3579604 80.5543733,90.5953646 C85.3844739,87.2672688 90.2978897,83.983566 94.5217817,79.8829396 C95.4541258,78.9097268 96.3510179,77.9045472 97.1876391,76.8478709 L96.8934071,76.8425431 C96.9696235,76.8354376 97.1220561,76.8194559 97.1982742,76.8123504 C100.576684,72.3991563 102.042557,66.9026487 103.051119,61.525125 C101.725282,60.6513644 100.519964,59.6017936 99.1480396,58.7972961 C96.1117214,57.0167462 93.1500313,55.1260884 90.0702883,53.4149756 C83.835285,49.9510192 77.4161356,46.8056651 70.9962672,43.6844601 C66.1094462,41.3087934 61.2288272,38.9139502 56.2033973,36.8439232 C54.6112721,36.1880731 50.9838772,34.5162084 50.1419331,36.9658392 C49.5587742,38.6742863 49.7821127,40.5088246 49.8281999,42.2794329 C49.977091,43.6362471 50.1773851,44.9895077 50.3865418,46.3392111 C50.7135865,48.2092681 51.1144955,50.0661813 51.5711306,51.9087113 C51.8165174,52.8988452 51.9943201,53.9050371 52.2643626,54.8892571 C54.0939497,61.5569941 56.8861945,67.9499978 60.153645,74.030258 C61.5916165,76.7058797 63.0983242,79.346869 64.6774569,81.941684 C64.8573476,82.2399359 65.0378764,82.5378077 65.2189422,82.835335 C65.7896917,83.8316296 66.4543845,84.7817553 66.9294164,85.8295591 C66.9205574,85.916578 66.9045995,86.0888452 66.8957387,86.1758695 C66.909387,86.0418931 66.1805293,85.4232435 66.0679233,85.2959677 C65.7623418,84.9506181 65.4748613,84.5903684 65.1792379,84.2369063 C64.5676692,83.5056839 64.0544697,82.6692907 63.5151309,81.8750919 C62.3464238,80.1542115 61.0428284,78.4565993 60.0236329,76.6508311 C58.976343,74.7951592 57.8746387,72.9739387 56.8598745,71.0985557 C56.0177513,69.5421479 55.1800647,67.943077 54.3638203,66.357528 C53.5329366,64.7436351 52.6287046,63.13954 51.8842469,61.4836587 C51.7722967,61.2346712 51.6706395,60.9801303 51.5514415,60.7327252 C51.162832,59.9199892 50.7758089,59.1064522 50.3910847,58.2918853 C49.6217232,56.6628916 48.8614583,55.029499 48.1157085,53.3896011 C46.6243684,50.1096313 45.1912377,46.8023104 43.8613169,43.4530828 C43.8413407,43.4027546 43.8213804,43.3524211 43.8014414,43.3020734 C43.3800634,42.2379329 42.9664101,41.170775 42.5605416,40.1005981 C42.1402608,38.9923984 41.7613523,37.8730459 41.3856289,36.7481702 C40.7599315,34.6259309 40.0278832,32.4557413 40.2069071,30.2109626 C40.2600808,29.2395275 40.8379221,28.2716443 41.7755997,27.9324411 C43.0940488,27.4423193 44.5993918,27.5614311 45.9580255,27.8082324 C49.2655366,28.4090126 52.5934315,29.2665039 55.8018609,30.3556283 C57.4077266,30.900717 58.9704086,31.6050323 60.5741793,32.1291633 C62.2889979,32.6895748 63.9947785,33.2932143 65.6873485,33.9191239 C65.7892699,33.956811 65.891115,33.9946721 65.992914,34.0326948 C69.3454469,35.2854927 72.6476405,36.5990949 75.9562133,37.9726011 C82.6703172,40.7599272 89.3312492,43.6655305 95.9998031,46.5691802 C98.941999,47.8502882 101.899082,49.0963339 104.836322,50.3892128 C105.935283,42.303392 106.768368,34.1838284 107.828328,26.0926798 C108.244939,22.9125187 108.873228,19.7589946 109.290035,16.5827403 C109.524127,14.7986388 109.956091,13.0475692 110.42237,11.312305 C110.867641,9.65518195 111.25038,7.99344152 111.94173,6.42014342 C112.735001,4.61526354 113.691526,2.77486484 115.264837,1.53792712 C115.779076,1.13372469 116.39925,0.676066881 117.034093,0.493980696 L117.035047,0.493003045 Z" id="silhouette"></path>
                <path d="M71.6764145,152.980426 C73.7578794,152.915302 75.8416433,152.922933 77.92311,153.002463 C81.3864251,153.134802 84.8516934,153.441557 88.2869992,153.898505 C90.0345438,154.130935 91.7763649,154.405691 93.5107769,154.722594 C94.3955946,154.884275 95.2784324,155.056937 96.1589128,155.240524 C96.5815723,155.328649 97.0037231,155.419308 97.4253226,155.512474 C97.6895123,155.570867 98.446748,155.889773 98.6884019,155.799557 C96.577515,156.580722 93.9657192,157.160664 92.4633328,158.976702 C91.0240532,160.729547 90.2210991,162.885531 89.0583299,164.814192 C87.2521382,167.993115 84.4427071,170.458111 81.4365198,172.466689 C78.9230968,174.12896 76.220013,175.523074 73.3609462,176.482071 C71.1506213,177.199544 68.7931794,177.68437 66.4658686,177.384248 C64.7412107,177.180011 63.1034096,176.39683 61.8484715,175.198075 C60.2142136,173.699188 59.056762,171.78296 57.9099454,169.909343 C56.116163,166.970176 54.2816093,164.036332 52.0305201,161.423942 C51.4225478,160.653182 50.7241773,159.935711 50.2916839,159.044189 C48.9686972,156.205006 54.8248902,155.130212 56.5812743,154.764542 C61.5498082,153.729637 66.6057253,153.139137 71.676356,152.980436 L71.6764145,152.980426 Z" id="eye"></path>
                <path d="M104.981886,231.172956 C105.577513,230.798237 106.29538,231.085937 106.938802,231.151646 C111.578182,232.044143 116.142579,233.418626 120.60843,234.949306 C125.070202,236.478641 129.446181,238.250759 133.734077,240.215665 C136.67042,241.561229 139.606947,242.966757 142.422231,244.553563 C146.485186,246.756243 150.451544,249.138122 154.305874,251.689615 C158.270988,254.314449 162.121423,257.11757 165.897233,260.007904 C167.952642,261.5814 169.996701,263.174926 171.998936,264.816232 C177.348382,269.188578 182.63401,273.660385 187.52794,278.545956 C188.322023,279.4357 189.335896,280.21356 189.784347,281.350161 C188.747409,281.172567 187.930304,280.439107 187.045822,279.924103 C181.451757,276.166224 176.043836,272.136644 170.550807,268.233148 C159.068467,260.042547 147.527621,251.839504 135.072172,245.174445 C130.901626,242.942801 126.664252,240.839561 122.340731,238.924233 C120.132175,237.94578 117.91228,236.992733 115.681752,236.065508 C113.494821,235.156273 111.231145,234.36597 109.087467,233.369459 C108.559543,233.124032 108.014385,232.913357 107.493535,232.65243 C106.619666,232.22798 105.713935,231.826618 104.981886,231.173085 L104.981886,231.172956 Z" id="whisker"></path>
            </g>
        </g>
    </g>
</svg>
