<?xml version="1.0" encoding="UTF-8"?>
<svg width="263px" height="79px" viewBox="0 0 263 79" version="1.1" xmlns="http://www.w3.org/2000/svg" xmlns:xlink="http://www.w3.org/1999/xlink">
    <title>text</title>
    <g id="Page-1" stroke="none" stroke-width="1" fill="none" fill-rule="evenodd">
        <g id="Artboard" transform="translate(-107.000000, -113.000000)" fill="#FFFFFF" fill-rule="nonzero">
            <g id="text" transform="translate(102.000000, 102.000000)">
                <path d="M9.84375,54 L9.84375,42.28125 L14.8535156,35.71875 L27.65625,54 L33.0761719,54 L17.7539062,32.4667969 L32.5488281,12.515625 L27.3632812,12.515625 L9.84375,36.3925781 L9.84375,12.515625 L5.2734375,12.515625 L5.2734375,54 L9.84375,54 Z M63.1816406,54.5566406 C66.2285156,54.5566406 68.8359375,53.8828125 71.0039062,52.5351562 C73.171875,51.1875 74.7832031,49.3710938 75.8378906,47.0859375 C76.4433594,45.796875 76.8974609,44.2539062 77.2001953,42.4570312 C77.5029297,40.6601562 77.6738281,39.1757812 77.7128906,38.0039062 C77.7519531,36.8320312 77.7714844,35.25 77.7714844,33.2578125 L77.7711377,32.8053578 C77.768364,31.0246625 77.7489483,29.5934495 77.7128906,28.5117188 C77.6738281,27.3398438 77.5029297,25.8554688 77.2001953,24.0585938 C76.8974609,22.2617188 76.4433594,20.71875 75.8378906,19.4296875 C74.7832031,17.1445312 73.171875,15.328125 71.0039062,13.9804688 C68.8359375,12.6328125 66.2285156,11.9589844 63.1816406,11.9589844 C60.1347656,11.9589844 57.5273438,12.6328125 55.359375,13.9804688 C53.1914062,15.328125 51.5800781,17.1445312 50.5253906,19.4296875 C49.9199219,20.71875 49.4658203,22.2617188 49.1630859,24.0585938 C48.8603516,25.8554688 48.6894531,27.3398438 48.6503906,28.5117188 C48.6113281,29.6835938 48.5917969,31.265625 48.5917969,33.2578125 C48.5917969,35.25 48.6113281,36.8320312 48.6503906,38.0039062 C48.6894531,39.1757812 48.8603516,40.6601562 49.1630859,42.4570312 C49.4658203,44.2539062 49.9199219,45.796875 50.5253906,47.0859375 C51.5800781,49.3710938 53.1914062,51.1875 55.359375,52.5351562 C57.5273438,53.8828125 60.1347656,54.5566406 63.1816406,54.5566406 Z M63.1816406,50.4550781 C61.1113281,50.4550781 59.3632812,50.0205078 57.9375,49.1513672 C56.5117188,48.2822266 55.4472656,47.0761719 54.7441406,45.5332031 C54.2558594,44.4980469 53.8896484,43.2041016 53.6455078,41.6513672 C53.4013672,40.0986328 53.2597656,38.7705078 53.2207031,37.6669922 C53.1816406,36.5634766 53.1621094,35.09375 53.1621094,33.2578125 L53.1625163,32.8064575 C53.1655002,31.1794637 53.1848958,29.8601888 53.2207031,28.8486328 C53.2597656,27.7451172 53.4013672,26.4169922 53.6455078,24.8642578 C53.8896484,23.3115234 54.2558594,22.0175781 54.7441406,20.9824219 C55.4472656,19.4394531 56.5117188,18.2333984 57.9375,17.3642578 C59.3632812,16.4951172 61.1113281,16.0605469 63.1816406,16.0605469 C65.2519531,16.0605469 67,16.5 68.4257812,17.3789062 C69.8515625,18.2382812 70.9160156,19.4394531 71.6191406,20.9824219 C72.1074219,22.0175781 72.4736328,23.3115234 72.7177734,24.8642578 C72.9619141,26.4169922 73.1035156,27.7451172 73.1425781,28.8486328 C73.1816406,29.9521484 73.2011719,31.421875 73.2011719,33.2578125 C73.2011719,35.09375 73.1816406,36.5634766 73.1425781,37.6669922 C73.1035156,38.7705078 72.9619141,40.0986328 72.7177734,41.6513672 C72.4736328,43.2041016 72.1074219,44.4980469 71.6191406,45.5332031 C70.9160156,47.0761719 69.8515625,48.2822266 68.4257812,49.1513672 C67,50.0205078 65.2519531,50.4550781 63.1816406,50.4550781 Z M111.685547,54.5566406 C116.177734,54.5566406 120.201172,53.1601562 123.755859,50.3671875 L123.755859,50.3671875 L121.177734,46.96875 C118.443359,49.2929688 115.279297,50.4550781 111.685547,50.4550781 C107.623047,50.4550781 104.869141,48.7949219 103.423828,45.4746094 C102.798828,44.0488281 102.398438,42.359375 102.222656,40.40625 C102.046875,38.453125 101.958984,36.0703125 101.958984,33.2578125 C101.958984,30.4453125 102.046875,28.0625 102.222656,26.109375 C102.398438,24.15625 102.798828,22.4667969 103.423828,21.0410156 C104.869141,17.7207031 107.623047,16.0605469 111.685547,16.0605469 C114.654297,16.0605469 117.525391,17.046875 120.298828,19.0195312 L120.298828,19.0195312 L122.642578,15.5039062 C119.283203,13.140625 115.630859,11.9589844 111.685547,11.9589844 C108.697266,11.9589844 106.133789,12.6279297 103.995117,13.9658203 C101.856445,15.3037109 100.25,17.1445312 99.1757812,19.4882812 C98.4335938,21.1289062 97.9501953,23.0527344 97.7255859,25.2597656 C97.5009766,27.4667969 97.3886719,30.1328125 97.3886719,33.2578125 C97.3886719,35.2890625 97.4130859,36.9541016 97.4619141,38.2529297 C97.5107422,39.5517578 97.6767578,41.0458984 97.9599609,42.7353516 C98.2431641,44.4248047 98.6484375,45.8554688 99.1757812,47.0273438 C100.210938,49.3515625 101.797852,51.1875 103.936523,52.5351562 C106.075195,53.8828125 108.658203,54.5566406 111.685547,54.5566406 Z M148.060547,54 L148.060547,34.8984375 L165.873047,34.8984375 L165.873047,54 L170.443359,54 L170.443359,12.515625 L165.873047,12.515625 L165.873047,30.796875 L148.060547,30.796875 L148.060547,12.515625 L143.490234,12.515625 L143.490234,54 L148.060547,54 Z M197.560547,54 L197.560547,42.28125 L202.570312,35.71875 L215.373047,54 L220.792969,54 L205.470703,32.4667969 L220.265625,12.515625 L215.080078,12.515625 L197.560547,36.3925781 L197.560547,12.515625 L192.990234,12.515625 L192.990234,54 L197.560547,54 Z M240.205078,54 L243.457031,43.9804688 L259.921875,43.9804688 L263.173828,54 L267.949219,54 L253.886719,12.515625 L249.492188,12.515625 L235.429688,54 L240.205078,54 Z M258.574219,39.8789062 L244.804688,39.8789062 L251.689453,18.6972656 L258.574219,39.8789062 Z" id="KOCHKA"></path>
                <path d="M111.242188,89.2226562 C113.039062,89.2226562 114.648438,88.6640625 116.070312,87.546875 L116.070312,87.546875 L115.039062,86.1875 C113.945312,87.1171875 112.679688,87.5820312 111.242188,87.5820312 C109.617188,87.5820312 108.515625,86.9179688 107.9375,85.5898438 C107.6875,85.0195312 107.527344,84.34375 107.457031,83.5625 C107.386719,82.78125 107.351562,81.828125 107.351562,80.703125 C107.351562,79.578125 107.386719,78.625 107.457031,77.84375 C107.527344,77.0625 107.6875,76.3867188 107.9375,75.8164062 C108.515625,74.4882812 109.617188,73.8242188 111.242188,73.8242188 C112.429688,73.8242188 113.578125,74.21875 114.6875,75.0078125 L114.6875,75.0078125 L115.625,73.6015625 C114.28125,72.65625 112.820312,72.1835938 111.242188,72.1835938 C110.046875,72.1835938 109.021484,72.4511719 108.166016,72.9863281 C107.310547,73.5214844 106.667969,74.2578125 106.238281,75.1953125 C105.941406,75.8515625 105.748047,76.6210938 105.658203,77.5039062 C105.568359,78.3867188 105.523438,79.453125 105.523438,80.703125 C105.523438,81.515625 105.533203,82.1816406 105.552734,82.7011719 C105.572266,83.2207031 105.638672,83.8183594 105.751953,84.4941406 C105.865234,85.1699219 106.027344,85.7421875 106.238281,86.2109375 C106.652344,87.140625 107.287109,87.875 108.142578,88.4140625 C108.998047,88.953125 110.03125,89.2226562 111.242188,89.2226562 Z M124.902344,89 L126.203125,84.9921875 L132.789062,84.9921875 L134.089844,89 L136,89 L130.375,72.40625 L128.617188,72.40625 L122.992188,89 L124.902344,89 Z M132.25,83.3515625 L126.742188,83.3515625 L129.496094,74.8789062 L132.25,83.3515625 Z M145.40625,89 L145.40625,81.359375 L151.546875,81.359375 L151.546875,79.71875 L145.40625,79.71875 L145.40625,74.046875 L152.484375,74.046875 L152.484375,72.40625 L143.578125,72.40625 L143.578125,89 L145.40625,89 Z M166.203125,70.765625 L168.136719,67.5546875 L166.15625,67.5546875 L164.351562,70.765625 L166.203125,70.765625 Z M170.140625,89 L170.140625,87.359375 L162.828125,87.359375 L162.828125,81.359375 L169.085938,81.359375 L169.085938,79.71875 L162.828125,79.71875 L162.828125,74.046875 L170.140625,74.046875 L170.140625,72.40625 L161,72.40625 L161,89 L170.140625,89 Z" id="CAFÉ"></path>
            </g>
        </g>
    </g>
</svg>