<svg width="200" height="200" viewBox="0 0 200 200" fill="none" xmlns="http://www.w3.org/2000/svg">
    <path fill-rule="evenodd" clip-rule="evenodd" d="M99 52H183V86H99V52Z" fill="white"/>
    <path fill-rule="evenodd" clip-rule="evenodd" d="M23 163C15.602 163 9.157 158.973 5.697 153C3.93049 156.037 2.99992 159.487 3 163C3 174.046 11.954 183 23 183H43V163H23Z" fill="#3E6ECC"/>
    <path fill-rule="evenodd" clip-rule="evenodd" d="M112.98 57.376L183 53V43C183 31.954 174.046 23 163 23H73L70.5 18.67C69.388 16.745 66.611 16.745 65.5 18.67L63 23L60.5 18.67C59.389 16.745 56.611 16.745 55.5 18.67L53 23L50.5 18.67C49.389 16.745 46.611 16.745 45.5 18.67L43 23C42.978 23 42.958 23.003 42.935 23.003L38.793 18.862C37.223 17.291 34.541 18.009 33.965 20.156L32.596 25.26L27.404 23.868C25.256 23.293 23.293 25.257 23.869 27.404L25.259 32.597L20.157 33.964C18.009 34.54 17.29 37.223 18.861 38.794L23.003 42.936C23.003 42.957 23 42.978 23 43L18.67 45.5C16.745 46.611 16.745 49.389 18.67 50.5L23 53L18.67 55.5C16.745 56.611 16.745 59.389 18.67 60.5L23 63L18.67 65.5C16.745 66.611 16.745 69.389 18.67 70.5L23 73L18.67 75.5C16.745 76.611 16.745 79.389 18.67 80.5L23 83L18.67 85.5C16.745 86.611 16.745 89.389 18.67 90.5L23 93L18.67 95.5C16.745 96.611 16.745 99.389 18.67 100.5L23 103L18.67 105.5C16.745 106.611 16.745 109.389 18.67 110.5L23 113L18.67 115.5C16.745 116.611 16.745 119.389 18.67 120.5L23 123L18.67 125.5C16.745 126.611 16.745 129.389 18.67 130.5L23 133L18.67 135.5C16.745 136.611 16.745 139.389 18.67 140.5L23 143L18.67 145.5C16.745 146.611 16.745 149.389 18.67 150.5L23 153L18.67 155.5C16.745 156.611 16.745 159.389 18.67 160.5L23 163C23 174.046 31.954 183 43 183H163C174.046 183 183 174.046 183 163V83L112.98 78.624C110.277 78.4548 107.741 77.2619 105.886 75.2881C104.032 73.3143 103 70.7081 103 68C103 62.379 107.37 57.727 112.98 57.376Z" fill="#3E6ECC"/>
    <path fill-rule="evenodd" clip-rule="evenodd" d="M143 183H173V143H143V183Z" fill="#3E6ECC"/>
    <path fill-rule="evenodd" clip-rule="evenodd" d="M193 158C192.781 158 192.572 158.037 192.361 158.064C192.323 157.914 192.287 157.763 192.245 157.613C193.311 157.167 194.189 156.367 194.731 155.347C195.273 154.327 195.446 153.151 195.219 152.018C194.992 150.886 194.38 149.867 193.487 149.134C192.594 148.402 191.475 148.001 190.32 148C189.228 148.004 188.168 148.368 187.304 149.036C187.193 148.923 187.082 148.811 186.969 148.7C187.622 147.841 187.977 146.792 187.98 145.713C187.979 144.561 187.581 143.445 186.852 142.552C186.123 141.66 185.109 141.047 183.98 140.817C182.851 140.587 181.677 140.753 180.657 141.288C179.637 141.823 178.833 142.694 178.381 143.754C178.233 143.712 178.084 143.677 177.936 143.639C177.963 143.428 178 143.219 178 143C178 141.674 177.473 140.402 176.536 139.464C175.598 138.527 174.326 138 173 138C171.674 138 170.402 138.527 169.464 139.464C168.527 140.402 168 141.674 168 143C168 143.219 168.037 143.428 168.064 143.639C167.916 143.677 167.767 143.712 167.619 143.754C167.169 142.692 166.365 141.819 165.344 141.282C164.323 140.746 163.149 140.578 162.019 140.809C160.889 141.04 159.873 141.654 159.144 142.548C158.416 143.441 158.018 144.56 158.02 145.713C158.02 146.838 158.404 147.864 159.031 148.7C155.314 152.332 153 157.393 153 163C153 174.046 161.954 183 173 183C182.339 183 190.16 176.59 192.361 167.936C192.572 167.963 192.781 168 193 168C194.326 168 195.598 167.473 196.536 166.536C197.473 165.598 198 164.326 198 163C198 161.674 197.473 160.402 196.536 159.464C195.598 158.527 194.326 158 193 158" fill="#4488D8"/>
    <path fill-rule="evenodd" clip-rule="evenodd" d="M153 123H183V103H153V123Z" fill="#3E6ECC"/>
    <path fill-rule="evenodd" clip-rule="evenodd" d="M193 115.5C193.663 115.5 194.299 115.237 194.768 114.768C195.237 114.299 195.5 113.663 195.5 113C195.5 112.337 195.237 111.701 194.768 111.232C194.299 110.763 193.663 110.5 193 110.5C192.891 110.5 192.786 110.519 192.681 110.532C192.661 110.457 192.644 110.382 192.623 110.307C193.155 110.084 193.594 109.683 193.864 109.173C194.135 108.663 194.22 108.076 194.107 107.51C193.994 106.944 193.688 106.435 193.242 106.068C192.796 105.702 192.237 105.501 191.66 105.5C191.091 105.5 190.572 105.697 190.152 106.018C190.097 105.961 190.041 105.905 189.984 105.85C190.298 105.433 190.49 104.919 190.49 104.356C190.49 103.78 190.291 103.221 189.926 102.775C189.562 102.329 189.054 102.022 188.49 101.907C187.925 101.792 187.338 101.875 186.828 102.143C186.318 102.411 185.916 102.847 185.69 103.377C184.815 103.129 183.91 103.003 183 103C177.478 103 173 107.478 173 113C173 118.522 177.478 123 183 123C183.934 123 184.833 122.862 185.69 122.623C185.916 123.153 186.318 123.589 186.828 123.857C187.338 124.125 187.925 124.208 188.49 124.093C189.054 123.978 189.562 123.671 189.926 123.225C190.291 122.779 190.49 122.22 190.49 121.644C190.49 121.081 190.298 120.567 189.984 120.15C190.041 120.095 190.097 120.039 190.152 119.982C190.572 120.303 191.091 120.5 191.66 120.5C192.238 120.5 192.798 120.3 193.245 119.934C193.691 119.567 193.998 119.058 194.111 118.491C194.225 117.925 194.138 117.336 193.867 116.826C193.596 116.316 193.156 115.916 192.623 115.693C192.644 115.619 192.661 115.543 192.681 115.468C192.786 115.481 192.891 115.5 193 115.5Z" fill="#4488D8"/>
    <path fill-rule="evenodd" clip-rule="evenodd" d="M63 55.5C62.337 55.5 61.7011 55.2366 61.2322 54.7678C60.7634 54.2989 60.5 53.663 60.5 53C60.5 48.864 57.136 45.5 53 45.5C48.864 45.5 45.5 48.864 45.5 53C45.5 53.663 45.2366 54.2989 44.7678 54.7678C44.2989 55.2366 43.663 55.5 43 55.5C42.337 55.5 41.7011 55.2366 41.2322 54.7678C40.7634 54.2989 40.5 53.663 40.5 53C40.5 46.107 46.107 40.5 53 40.5C59.893 40.5 65.5 46.107 65.5 53C65.5 53.663 65.2366 54.2989 64.7678 54.7678C64.2989 55.2366 63.663 55.5 63 55.5" fill="black"/>
    <path fill-rule="evenodd" clip-rule="evenodd" d="M103 183H163C174.046 183 183 174.046 183 163V93H123C111.954 93 103 101.954 103 113V183Z" fill="#FFCE50"/>
    <path fill-rule="evenodd" clip-rule="evenodd" d="M168.02 124H117.98C117.715 124 117.46 123.895 117.273 123.707C117.085 123.52 116.98 123.265 116.98 123C116.98 122.735 117.085 122.48 117.273 122.293C117.46 122.105 117.715 122 117.98 122H168.02C168.285 122 168.54 122.105 168.727 122.293C168.915 122.48 169.02 122.735 169.02 123C169.02 123.265 168.915 123.52 168.727 123.707C168.54 123.895 168.285 124 168.02 124ZM168.02 144H117.98C117.715 144 117.46 143.895 117.273 143.707C117.085 143.52 116.98 143.265 116.98 143C116.98 142.735 117.085 142.48 117.273 142.293C117.46 142.105 117.715 142 117.98 142H168.02C168.285 142 168.54 142.105 168.727 142.293C168.915 142.48 169.02 142.735 169.02 143C169.02 143.265 168.915 143.52 168.727 143.707C168.54 143.895 168.285 144 168.02 144ZM168.02 164H117.98C117.715 164 117.46 163.895 117.273 163.707C117.085 163.52 116.98 163.265 116.98 163C116.98 162.735 117.085 162.48 117.273 162.293C117.46 162.105 117.715 162 117.98 162H168.02C168.285 162 168.54 162.105 168.727 162.293C168.915 162.48 169.02 162.735 169.02 163C169.02 163.265 168.915 163.52 168.727 163.707C168.54 163.895 168.285 164 168.02 164ZM168.02 114.186H117.98C117.715 114.186 117.46 114.081 117.273 113.893C117.085 113.706 116.98 113.451 116.98 113.186C116.98 112.921 117.085 112.666 117.273 112.479C117.46 112.291 117.715 112.186 117.98 112.186H168.02C168.285 112.186 168.54 112.291 168.727 112.479C168.915 112.666 169.02 112.921 169.02 113.186C169.02 113.451 168.915 113.706 168.727 113.893C168.54 114.081 168.285 114.186 168.02 114.186ZM168.02 134H117.98C117.715 134 117.46 133.895 117.273 133.707C117.085 133.52 116.98 133.265 116.98 133C116.98 132.735 117.085 132.48 117.273 132.293C117.46 132.105 117.715 132 117.98 132H168.02C168.285 132 168.54 132.105 168.727 132.293C168.915 132.48 169.02 132.735 169.02 133C169.02 133.265 168.915 133.52 168.727 133.707C168.54 133.895 168.285 134 168.02 134ZM168.02 154H117.98C117.715 154 117.46 153.895 117.273 153.707C117.085 153.52 116.98 153.265 116.98 153C116.98 152.735 117.085 152.48 117.273 152.293C117.46 152.105 117.715 152 117.98 152H168.02C168.285 152 168.54 152.105 168.727 152.293C168.915 152.48 169.02 152.735 169.02 153C169.02 153.265 168.915 153.52 168.727 153.707C168.54 153.895 168.285 154 168.02 154ZM183 61.611C182.988 61.611 182.978 61.605 182.966 61.606C179.876 61.711 178.414 64.802 177.124 67.529C175.778 70.379 174.737 72.232 173.031 72.176C171.142 72.108 170.062 69.974 168.918 67.716C167.604 65.122 166.104 62.18 162.955 62.29C159.909 62.394 158.442 65.084 157.148 67.457C155.771 69.985 154.834 71.522 153.027 71.451C151.1 71.381 150.076 69.646 148.891 67.638C147.57 65.402 146.043 62.888 142.955 62.974C139.961 63.077 138.49 65.359 137.192 67.374C135.819 69.504 134.857 70.802 133.027 70.725C131.054 70.655 130.035 69.215 128.856 67.548C127.532 65.675 126.04 63.555 122.961 63.658C120.033 63.758 118.562 65.628 117.265 67.276C116.033 68.84 115.071 70.078 113.036 70C112.771 69.9905 112.513 70.0867 112.318 70.2675C112.124 70.4482 112.01 70.6988 112 70.964C111.99 71.2292 112.087 71.4874 112.267 71.6817C112.448 71.8759 112.699 71.9905 112.964 72C115.981 72.101 117.509 70.2 118.836 68.513C120.013 67.017 121.029 65.726 123.029 65.658C124.955 65.576 125.858 66.773 127.224 68.703C128.521 70.537 129.993 72.617 132.955 72.724C136.058 72.828 137.551 70.509 138.873 68.457C140.055 66.623 141.075 65.04 143.023 64.973C144.816 64.906 145.792 66.323 147.168 68.654C148.465 70.851 149.934 73.34 152.955 73.45C156.08 73.558 157.589 70.83 158.904 68.415C160.043 66.327 161.118 64.355 163.023 64.289C164.816 64.247 165.751 65.884 167.134 68.619C168.426 71.172 169.891 74.064 172.959 74.175L173.128 74.178C176.192 74.178 177.646 71.103 178.933 68.384C180.072 65.974 181.15 63.704 183 63.611V61.611V61.611Z" fill="black"/>
    <path fill-rule="evenodd" clip-rule="evenodd" d="M83 183H123V143H83V183Z" fill="#3E6ECC"/>
    <path fill-rule="evenodd" clip-rule="evenodd" d="M143 158C142.781 158 142.572 158.037 142.361 158.064C142.323 157.914 142.287 157.763 142.245 157.613C143.311 157.167 144.189 156.367 144.731 155.347C145.273 154.327 145.446 153.151 145.219 152.018C144.992 150.886 144.38 149.867 143.487 149.134C142.594 148.402 141.475 148.001 140.32 148C139.228 148.004 138.168 148.368 137.304 149.036C137.193 148.923 137.082 148.811 136.969 148.7C137.622 147.841 137.977 146.792 137.98 145.713C137.979 144.561 137.581 143.445 136.852 142.552C136.123 141.66 135.109 141.047 133.98 140.817C132.851 140.587 131.677 140.753 130.657 141.288C129.637 141.823 128.833 142.694 128.381 143.754C128.233 143.712 128.084 143.677 127.936 143.639C127.963 143.428 128 143.219 128 143C128 141.674 127.473 140.402 126.536 139.464C125.598 138.527 124.326 138 123 138C121.674 138 120.402 138.527 119.464 139.464C118.527 140.402 118 141.674 118 143C118 143.219 118.037 143.428 118.064 143.639C117.916 143.677 117.767 143.712 117.619 143.754C117.169 142.692 116.365 141.819 115.344 141.282C114.323 140.746 113.149 140.578 112.019 140.809C110.889 141.04 109.873 141.654 109.144 142.548C108.416 143.441 108.018 144.56 108.02 145.713C108.02 146.838 108.404 147.864 109.031 148.7C105.314 152.332 103 157.393 103 163C103 174.046 111.954 183 123 183C132.339 183 140.16 176.59 142.361 167.936C142.572 167.963 142.781 168 143 168C144.326 168 145.598 167.473 146.536 166.536C147.473 165.598 148 164.326 148 163C148 161.674 147.473 160.402 146.536 159.464C145.598 158.527 144.326 158 143 158" fill="#4488D8"/>
    <path fill-rule="evenodd" clip-rule="evenodd" d="M83 123H123V103H83V123Z" fill="#3E6ECC"/>
    <path fill-rule="evenodd" clip-rule="evenodd" d="M133 115.5C133.663 115.5 134.299 115.237 134.768 114.768C135.237 114.299 135.5 113.663 135.5 113C135.5 112.337 135.237 111.701 134.768 111.232C134.299 110.763 133.663 110.5 133 110.5C132.891 110.5 132.786 110.519 132.681 110.532C132.661 110.457 132.644 110.382 132.623 110.307C133.155 110.084 133.594 109.683 133.864 109.173C134.135 108.663 134.22 108.076 134.107 107.51C133.994 106.944 133.688 106.435 133.242 106.068C132.796 105.702 132.237 105.501 131.66 105.5C131.091 105.5 130.572 105.697 130.152 106.018C130.097 105.961 130.041 105.905 129.984 105.85C130.298 105.433 130.49 104.919 130.49 104.356C130.49 103.78 130.291 103.221 129.926 102.775C129.562 102.329 129.054 102.022 128.49 101.907C127.925 101.792 127.338 101.875 126.828 102.143C126.318 102.411 125.916 102.847 125.69 103.377C124.815 103.129 123.91 103.003 123 103C117.478 103 113 107.478 113 113C113 118.522 117.478 123 123 123C123.934 123 124.833 122.862 125.69 122.623C125.916 123.153 126.318 123.589 126.828 123.857C127.338 124.125 127.925 124.208 128.49 124.093C129.054 123.978 129.562 123.671 129.926 123.225C130.291 122.779 130.49 122.22 130.49 121.644C130.49 121.081 130.298 120.567 129.984 120.15C130.041 120.095 130.097 120.039 130.152 119.982C130.572 120.303 131.091 120.5 131.66 120.5C132.238 120.5 132.798 120.3 133.245 119.934C133.691 119.567 133.998 119.058 134.111 118.491C134.225 117.925 134.138 117.336 133.867 116.826C133.596 116.316 133.156 115.916 132.623 115.693C132.644 115.619 132.661 115.543 132.681 115.468C132.786 115.481 132.891 115.5 133 115.5Z" fill="#4488D8"/>
    <path fill-rule="evenodd" clip-rule="evenodd" d="M143 41.75C142.84 41.75 142.67 41.73 142.51 41.7C142.349 41.6687 142.192 41.6218 142.04 41.56C141.89 41.5 141.75 41.42 141.609 41.33C141.479 41.24 141.35 41.13 141.229 41.02C141.12 40.9 141.01 40.78 140.92 40.64C140.83 40.5 140.75 40.36 140.689 40.21C140.566 39.9047 140.502 39.579 140.5 39.25C140.5 39.09 140.52 38.92 140.55 38.76C140.58 38.6 140.63 38.45 140.689 38.29C140.75 38.14 140.83 38 140.92 37.86C141.01 37.73 141.12 37.6 141.229 37.48C141.35 37.37 141.479 37.26 141.609 37.17C141.75 37.08 141.89 37 142.04 36.94C142.189 36.88 142.35 36.83 142.51 36.8C142.83 36.73 143.16 36.73 143.49 36.8C143.649 36.83 143.81 36.88 143.96 36.94C144.109 37 144.25 37.08 144.39 37.17C144.52 37.26 144.649 37.37 144.77 37.48C144.88 37.6 144.99 37.73 145.08 37.86C145.17 38 145.25 38.14 145.31 38.29C145.37 38.45 145.42 38.6 145.45 38.76C145.479 38.92 145.5 39.09 145.5 39.25C145.5 39.91 145.229 40.56 144.77 41.02C144.649 41.13 144.52 41.24 144.39 41.33C144.25 41.42 144.109 41.5 143.96 41.56C143.655 41.6844 143.329 41.7489 143 41.75V41.75ZM163 40.5C162.34 40.5 161.7 40.23 161.229 39.77C161.118 39.6501 161.015 39.5232 160.92 39.39C160.83 39.25 160.75 39.11 160.689 38.96C160.566 38.6547 160.502 38.329 160.5 38C160.5 37.34 160.77 36.7 161.229 36.23C161.35 36.12 161.479 36.01 161.609 35.92C161.75 35.83 161.89 35.75 162.04 35.69C162.189 35.63 162.35 35.58 162.51 35.55C162.83 35.48 163.17 35.48 163.49 35.55C163.649 35.58 163.81 35.63 163.96 35.69C164.109 35.75 164.25 35.83 164.39 35.92C164.52 36.01 164.649 36.12 164.77 36.23C165.229 36.7 165.5 37.34 165.5 38C165.5 38.16 165.479 38.33 165.45 38.49C165.42 38.65 165.37 38.81 165.31 38.96C165.24 39.11 165.17 39.25 165.08 39.39C164.99 39.52 164.88 39.65 164.77 39.77C164.649 39.88 164.52 39.99 164.39 40.08C164.25 40.17 164.109 40.25 163.96 40.31C163.655 40.4344 163.329 40.4989 163 40.5Z" fill="black"/>
</svg>
