<svg width="250" height="250" fill="none" xmlns="http://www.w3.org/2000/svg">
    <path d="M246.146 48.611c-4.813-8.27-13.667-13.889-23.924-13.889H125v13.89h121.146zM0 173.611h250V187.5H0v-13.889zm125-55.555h125v13.888H125v-13.888zm0-27.778h125v13.889H125v-13.89zM0 145.833h250v13.889H0v-13.889zm27.778 69.445h194.444c10.257 0 19.111-5.618 23.924-13.889H3.854c4.813 8.271 13.667 13.889 23.924 13.889zM125 62.5h125v13.889H125V62.5z" fill="#B22334"/>
    <path d="M.472 192.215c.118.646.25 1.292.41 1.924.18.701.403 1.375.639 2.055.618 1.799 1.368 3.535 2.312 5.16l.021.035h242.292l.014-.028c.937-1.618 1.687-3.354 2.305-5.146.236-.687.466-1.375.646-2.09.16-.625.292-1.264.41-1.91.285-1.527.479-3.097.479-4.715H0c0 1.618.194 3.181.472 4.715zM0 159.722h250v13.889H0v-13.889zm0-27.778v13.889h250v-13.889H0zm125-27.777h125v13.889H125v-13.889zm0-27.778h125v13.889H125v-13.89zM0 62.5c0-1.618.208-3.174.472-4.715C.194 59.319 0 60.882 0 62.5zm3.854-13.889l-.02.035.02-.035zM.89 55.861c.173-.708.417-1.382.639-2.062a26.25 26.25 0 00-.64 2.062zM125 62.5h125c0-1.618-.194-3.188-.479-4.722a24.856 24.856 0 00-.41-1.903c-.187-.715-.41-1.41-.653-2.097-.618-1.792-1.368-3.521-2.305-5.14.007-.006 0-.02-.007-.027H125V62.5z"
          fill="#EEE"/>
    <path d="M125 34.722H27.778C12.438 34.722 0 47.16 0 62.5v69.444h125V34.722z" fill="#3C3B6E"/>
    <path d="M13.896 53.653l4.291 3.118-1.638 5.035 4.284-3.112 4.292 3.112-1.639-5.035 4.292-3.118h-5.306l-1.639-5.042-1.632 5.042h-5.305zm13.889 13.889l4.291 3.118-1.639 5.034 4.285-3.11 4.292 3.11-1.639-5.034 4.292-3.118H36.36L34.722 62.5l-1.632 5.042h-5.305zm27.777 0l4.292 3.118-1.639 5.034 4.285-3.11 4.292 3.11-1.64-5.034 4.293-3.118h-5.306L62.5 62.5l-1.632 5.042h-5.306zm27.778 0l4.292 3.118-1.639 5.034 4.285-3.11 4.291 3.11-1.638-5.034 4.291-3.118h-5.305l-1.64-5.042-1.631 5.042H83.34zM27.785 95.319l4.291 3.118-1.639 5.035 4.285-3.111 4.292 3.111-1.639-5.034 4.292-3.119H36.36l-1.639-5.041-1.632 5.041h-5.305zm27.777 0l4.292 3.118-1.639 5.035 4.285-3.111 4.292 3.111-1.64-5.034 4.293-3.119h-5.306L62.5 90.278l-1.632 5.041h-5.306zm27.778 0l4.292 3.118-1.639 5.035 4.285-3.111 4.291 3.111-1.638-5.034 4.291-3.119h-5.305l-1.64-5.041-1.631 5.041H83.34zM41.674 53.653l4.291 3.118-1.639 5.035 4.285-3.112 4.292 3.112-1.64-5.035 4.293-3.118H50.25l-1.639-5.042-1.632 5.042h-5.305zm27.777 0l4.292 3.118-1.639 5.035 4.285-3.112 4.292 3.112-1.64-5.035 4.292-3.118h-5.305l-1.64-5.042-1.631 5.042h-5.306zm27.778 0l4.292 3.118-1.639 5.035 4.285-3.112 4.291 3.112-1.639-5.035 4.292-3.118h-5.305l-1.639-5.042-1.632 5.042h-5.306zM13.896 81.43l4.291 3.118-1.638 5.034 4.284-3.11 4.292 3.11-1.639-5.034 4.292-3.118h-5.306l-1.639-5.042-1.632 5.042h-5.305zm30.43 8.152l4.285-3.11 4.292 3.11-1.64-5.034 4.293-3.118H50.25l-1.639-5.042-1.632 5.042h-5.305l4.291 3.118-1.639 5.034zm25.125-8.152l4.292 3.118-1.639 5.034 4.285-3.11 4.292 3.11-1.64-5.034 4.292-3.118h-5.305l-1.64-5.042-1.631 5.042h-5.306zm27.778 0l4.292 3.118-1.639 5.034 4.285-3.11 4.291 3.11-1.639-5.034 4.292-3.118h-5.305l-1.639-5.042-1.632 5.042h-5.306zm-83.333 27.777l4.291 3.118-1.638 5.035 4.284-3.111 4.292 3.111-1.639-5.035 4.292-3.118h-5.306l-1.639-5.041-1.632 5.041h-5.305zm30.43 8.153l4.285-3.111 4.292 3.111-1.64-5.035 4.293-3.118H50.25l-1.639-5.041-1.632 5.041h-5.305l4.291 3.118-1.639 5.035zm25.125-8.153l4.292 3.118-1.639 5.035 4.285-3.111 4.292 3.111-1.64-5.035 4.292-3.118h-5.305l-1.64-5.041-1.631 5.041h-5.306zm27.778 0l4.292 3.118-1.639 5.035 4.285-3.111 4.291 3.111-1.639-5.035 4.292-3.118h-5.305l-1.639-5.041-1.632 5.041h-5.306z"
          fill="#fff"/>
</svg>
