<svg width="211" height="232" viewBox="0 0 211 232" fill="none" xmlns="http://www.w3.org/2000/svg">
    <path d="M42.2 10.5455L10.55 52.7273V200.364C10.55 205.957 12.773 211.321 16.7301 215.277C20.6871 219.233 26.0539 221.455 31.65 221.455H179.35C184.946 221.455 190.312 219.233 194.27 215.277C198.227 211.321 200.45 205.957 200.45 200.364V52.7273L168.8 10.5455H42.2Z" stroke="black" stroke-width="1.5" stroke-linecap="round" stroke-linejoin="round"/>
    <path d="M10.55 52.7273H200.45" stroke="black" stroke-width="1.5" stroke-linecap="round" stroke-linejoin="round"/>
    <path d="M147.7 94.9091C147.7 106.097 143.254 116.826 135.34 124.736C127.426 132.647 116.692 137.091 105.5 137.091C94.3078 137.091 83.5741 132.647 75.66 124.736C67.7461 116.826 63.3 106.097 63.3 94.9091" stroke="black" stroke-width="1.5" stroke-linecap="round" stroke-linejoin="round"/>
</svg>
