<?xml version="1.0" encoding="UTF-8"?>
<svg width="1024px" height="1024px" viewBox="0 0 1024 1024" version="1.1" xmlns="http://www.w3.org/2000/svg" xmlns:xlink="http://www.w3.org/1999/xlink">
    <title>f_logo_RGB-Black_1024</title>
    <defs>
        <polygon id="path-1" points="0.06 0.04 1024 0.04 1024 1017.78 0.06 1017.78"></polygon>
    </defs>
    <g id="Page-1" stroke="none" stroke-width="1" fill="none" fill-rule="evenodd">
        <g id="f_logo_RGB-Black_1024">
            <g id="Group-3">
                <mask id="mask-2" fill="white">
                    <use xlink:href="#path-1"></use>
                </mask>
                <g id="Clip-2"></g>
                <path d="M1024,512 C1024,229.23 794.77,0 512,0 C229.23,0 0,229.23 0,512 C0,767.554 187.231,979.37 432,1017.78 L432,660 L302,660 L302,512 L432,512 L432,399.2 C432,270.88 508.438,200 625.39,200 C681.407,200 740,210 740,210 L740,336 L675.438,336 C611.835,336 592,375.467 592,415.957 L592,512 L734,512 L711.3,660 L592,660 L592,1017.78 C836.769,979.37 1024,767.554 1024,512" id="Fill-1" fill="#0A0B09" mask="url(#mask-2)"></path>
            </g>
            <path d="M711.3,660 L734,512 L592,512 L592,415.957 C592,375.467 611.835,336 675.438,336 L740,336 L740,210 C740,210 681.407,200 625.39,200 C508.438,200 432,270.88 432,399.2 L432,512 L302,512 L302,660 L432,660 L432,1017.78 C458.067,1021.87 484.784,1024 512,1024 C539.216,1024 565.933,1021.87 592,1017.78 L592,660 L711.3,660" id="Fill-4" fill="#FFFFFE"></path>
        </g>
    </g>
</svg>
