<svg width="250" height="250" fill="none" xmlns="http://www.w3.org/2000/svg">
    <path d="M27.778 34.722C12.438 34.722 0 47.16 0 62.5v125c0 15.34 12.438 27.778 27.778 27.778h48.61V34.722h-48.61z" fill="#006847"/>
    <path d="M222.222 34.722h-48.611v180.556h48.611c15.341 0 27.778-12.438 27.778-27.778v-125c0-15.34-12.437-27.778-27.778-27.778z" fill="#CE1126"/>
    <path d="M76.389 34.722h97.222v180.556H76.389V34.722z" fill="#EEE"/>
    <path d="M159.722 125c0 19.181-15.541 34.722-34.722 34.722-19.174 0-34.722-15.541-34.722-34.722h-6.945c0 23.007 18.653 41.667 41.667 41.667 23.014 0 41.667-18.66 41.667-41.667h-6.945z" fill="#A6D388"/>
    <path d="M94.049 140.757a3.46 3.46 0 00-3.25-1.882 3.39 3.39 0 00-1.424.368 3.474 3.474 0 00-1.52 4.674 40.578 40.578 0 002.055 3.583v.007l.028.042v.007l.055.076v.007l.02.042.008.013.028.035v.007l.02.035v.014l.021.034.007.014.021.035.007.014.02.028.015.021.014.02.006.021.021.035.007.007.014.021.021.041.007.014.02.035.008.014.048.069v.007l.035.049v.007c.361.535.73 1.048 1.118 1.569a3.452 3.452 0 004.84.702 3.464 3.464 0 00.716-4.855 41.362 41.362 0 01-2.986-4.93zm-3.452-10.986a36.722 36.722 0 01-.298-3.313 42.107 42.107 0 01-.021-2.472 3.472 3.472 0 00-3.368-3.569l-.25.007a3.465 3.465 0 00-3.32 3.368c-.014.722-.02 1.437-.007 2.159v.625l.007.035v.195l.007.02-.007.014v.021l.007.014v.201l.007.021v.077l.007.132.007.062v.076a43.74 43.74 0 00.32 3.313 3.472 3.472 0 003.576 2.986c.111-.007.222-.014.326-.035 1.952-.277 3.271-2.034 3.007-3.937zm36.764 29.861l-.042.007-.861.055a35.34 35.34 0 01-4.93-.145 3.475 3.475 0 00-3.799 3.111 3.478 3.478 0 003.104 3.798l.868.077.028.007.014-.007.021.007h.014l.041.007h.042l.021.007h.007l.042-.007.02.007h.035l.042.006.034.007h.091l.041.007h.091a37.11 37.11 0 003.187.084h.271l.049-.007.041.007h.104l.035-.007h.132l.042-.007h.007l.034.007.007-.007.042.007h.007l.035-.007h.055l.042-.007h.042l.007.007.041-.007h.049l.035-.007h.138l.035-.007h.028l.028-.007.028.007h.034l.028-.007h.035c.291-.007.59-.035.882-.049a3.43 3.43 0 003.146-3.652c-.049-1.889-1.681-3.355-3.57-3.285zm-16.937-3.111a35.272 35.272 0 01-5.028-2.854 3.44 3.44 0 00-2.104-.605 3.446 3.446 0 00-2.73 1.507c-1.076 1.577-.68 3.743.903 4.82l.007.007.042.021.042.041.041.028.042.035a40.881 40.881 0 005.847 3.305 3.414 3.414 0 001.597.32 3.459 3.459 0 003.007-2.007 3.455 3.455 0 00-1.666-4.618zm34.93-2.764a3.463 3.463 0 00-1.722.555 35.677 35.677 0 01-5.097 2.688 3.46 3.46 0 00-1.854 4.549 3.492 3.492 0 003.333 2.118c.41-.014.805-.111 1.201-.264l.931-.417h.014l.041-.028.014-.007.028-.014h.028l.028-.013.013-.014.042-.007.014-.014.021-.014.035-.014.02-.007.035-.014.014-.007.035-.014.014-.007c.02-.013.02-.02.034-.02l.014-.007.042-.021h.014l.041-.021.042-.021.014-.007.035-.021.014-.007.041-.02.007-.007.049-.007.048-.028.014-.007.028-.021h.014l.042-.028.055-.013.042-.028h.007l.048-.028.007-.007.098-.042.048-.02.097-.056.056-.021.042-.021h.007l.097-.055v-.007l.042-.014h.006l.153-.083.049-.014.097-.056.049-.028h.007c.007-.007.02-.014.048-.014a.097.097 0 01.042-.034l.055-.028.042-.021v-.007l.097-.041h.007l.049-.028.007-.007.035-.021h.007l.048-.028.042-.021h.014l.041-.027v-.007l.049-.021.007-.007.042-.021v-.007l.041-.014.014-.007.028-.021.021-.007.034-.02.014-.007.035-.021.014-.007.042-.014c-.007-.007 0-.007.007-.007l.041-.021.014-.007.028-.021.014-.006.041-.021.014-.007c0-.014.014-.014.028-.021l.021-.007.028-.014.021-.014.027-.014.021-.014.021-.013.021-.021.035-.007.027-.007.014-.014.028-.014.028-.021.014-.007.027-.014.028-.02.021-.014c.014.007.021 0 .035-.007l.014-.014.027-.014.021-.014.021-.014.028-.014.028-.021.014-.007c.013-.006.041-.006.055-.02-.014-.007-.014-.007 0-.007l.028-.014.049-.035.013-.007.049-.021v-.007l.083-.041.056-.035c.042-.028.083-.056.139-.076h.007c.437-.264.889-.535 1.319-.813a3.473 3.473 0 001.056-4.792c-.799-1.034-1.979-1.611-3.174-1.562zm17.854-32.07l-.166.007a3.47 3.47 0 00-3.327 3.459c0 1.923-.173 3.868-.5 5.757a3.476 3.476 0 002.834 4.007c.25.041.493.062.736.055a3.493 3.493 0 003.284-2.896v-.034l.007-.014.007-.014-.007-.014.007-.014v-.014l.007-.014v-.021l.007-.013v-.063c.014-.007.014-.021.014-.028v-.041c.146-.896.271-1.799.361-2.716l-.007-.007.007-.02v-.007l.007-.028v-.077l.014-.02v-.007l-.007-.021v-.014l.007-.021v-.028l.014-.007-.014-.02v-.028c.014-.007.014-.014.014-.021v-.132l.014-.021v-.007c.09-1.132.146-2.278.146-3.437a3.474 3.474 0 00-3.459-3.466zm-3.076 18.723a3.478 3.478 0 00-4.722 1.361 33.713 33.713 0 01-3.216 4.805 3.473 3.473 0 00.556 4.875 3.448 3.448 0 002.312.75 3.459 3.459 0 002.57-1.305 45.15 45.15 0 002.292-3.16c.013-.049.048-.097.076-.139l.007-.007.028-.041v-.007l.027-.049c.014-.014.028-.028.028-.042l.007.007.028-.041v-.007a.076.076 0 00.021-.049l.014-.007.027-.042v-.006c.014-.007.014-.021.021-.035l.007-.007.028-.042.007-.014.014-.034.021-.014.014-.035h.013l.014-.042.007-.014.028-.027.007-.014c.007-.014.007-.028.021-.035l.007-.021.028-.021c0-.007 0-.014.013-.02v-.028l.021-.014.021-.035.007-.014.021-.041.014-.014.014-.028.014-.021c0-.007 0-.014.013-.021 0-.007 0-.014.014-.021l.021-.034.007-.021.014-.021.014-.021c.014-.007.014-.014.014-.021.014-.007.014-.014.014-.027l.014-.021.02-.028.021-.028v-.021l.014-.02.021-.028.021-.021v-.021l.028-.035v-.02c.013-.007.02-.014.02-.028l.014-.014.014-.021.021-.035.014-.021v-.013l.028-.035c0-.007 0-.014.014-.021l.007-.021.02-.028.014-.027.014-.021c.007-.007 0-.021.014-.028 0-.007 0-.014.014-.014l.014-.035.014-.013.014-.042.013-.007.014-.028.014-.014.014-.034.014-.014.014-.042c.014-.007 0-.014 0-.014l.028-.035.007-.014.027-.034v-.007l.021-.042.014-.014.014-.041v-.007l.035-.035.021-.042v-.007l.027-.048.014-.007.174-.327c.896-1.625.298-3.736-1.382-4.666z"
          fill="#5C913B"/>
    <path d="M125 152.778c11.506 0 20.833-3.109 20.833-6.945 0-3.835-9.327-6.944-20.833-6.944-11.506 0-20.833 3.109-20.833 6.944 0 3.836 9.327 6.945 20.833 6.945z" fill="#55ACEE"/>
    <path d="M128.472 152.778c5.753 0 10.417-3.109 10.417-6.945 0-3.835-4.664-6.944-10.417-6.944s-10.416 3.109-10.416 6.944c0 3.836 4.663 6.945 10.416 6.945z" fill="#FFCC4D"/>
    <path d="M132.757 147.736a3.488 3.488 0 01-1.66-.424 3.471 3.471 0 01-1.396-4.708c1.111-2.042 2.278-3.896 3.487-5.521-.966.042-1.966.063-2.987.063-1.916 0-3.666-1.563-3.666-3.479 0-1.917 1.354-3.473 3.278-3.473l.569.007c2.055 0 4.167-.125 6.055-.298a3.407 3.407 0 012.848 1.083c.097-.076.194-.153.298-.215a16.695 16.695 0 011.945-1.118c.409-.32.909-.549 1.465-.653l.25-.049c1.306-.423 2.222-.479 2.59-.479a3.468 3.468 0 013.313 4.493c-.57 1.847-1.84 2.264-4.07 2.709a8.3 8.3 0 00-1.652.888c-1.306.855-3 .723-4.16-.236.951 1.229.993 2.993-.014 4.264-1.181 1.507-2.34 3.299-3.444 5.334a3.457 3.457 0 01-3.049 1.812zm-9.861-11.035a3.58 3.58 0 01-.458-.027c-2.598-.348-5.063-.862-7.334-1.535a3.472 3.472 0 01-2.34-4.32l.042-.139-.084.16a3.469 3.469 0 01-4.729 1.334c-2.361-1.32-4.479-2.91-6.299-4.73a3.474 3.474 0 010-4.909 3.473 3.473 0 014.91 0c1.368 1.368 2.972 2.569 4.778 3.576a3.468 3.468 0 011.59 4.146 3.478 3.478 0 014.097-1.778c1.917.57 4.021 1.007 6.25 1.306a3.473 3.473 0 012.993 3.895c-.201 1.75-1.701 3.021-3.416 3.021zm-17.028-16.243c-2.958 0-6.785-1.146-9.104-3.882-3.556-4.194-5.646-9.576-5.326-13.701.083-1.104-.994-1.993-2.05-2.271-.603-.16-1.666-.257-2.166.82a1.742 1.742 0 01-2.305.847 1.74 1.74 0 01-.848-2.306c1.084-2.354 3.514-3.403 6.195-2.722 2.486.646 4.868 2.882 4.632 5.903-.25 3.208 1.57 7.701 4.514 11.18 1.548 1.834 4.243 2.577 6.076 2.646 1.493.077 2.25-.264 2.41-.41-.389-.923-5.535-3.632-7.729-4.784-1.868-.979-2.424-2.327-2.563-3.278-.465-3.16 2.778-6.361 5.917-9.445 1.104-1.09 2.153-2.118 2.722-2.875.646-.854.542-1.423.417-1.777-.479-1.299-2.556-2.584-5.056-3.14-2.312-.513-3.875-1.631-4.639-3.326-1.007-2.229-.472-5.145 1.625-8.923a1.73 1.73 0 012.361-.674 1.734 1.734 0 01.674 2.361c-1.98 3.556-1.785 5.167-1.493 5.813.292.639 1.035 1.09 2.222 1.354 2.938.653 6.472 2.396 7.556 5.326.618 1.674.305 3.48-.889 5.07-.722.965-1.861 2.083-3.063 3.271-1.791 1.764-5.132 5.048-4.916 6.465.041.292.423.549.743.708 5.215 2.736 8.68 4.716 9.389 7.139.25.854.145 1.715-.292 2.493-.674 1.174-2.076 1.896-4.063 2.077-.298.027-.625.041-.951.041z"
          fill="#5C913B"/>
    <path d="M135.417 131.944c1.917 0 3.472-3.109 3.472-6.944s-1.555-6.944-3.472-6.944c-1.918 0-3.473 3.109-3.473 6.944s1.555 6.944 3.473 6.944zM120.083 119.361c0 2-2.396 3.618-5.354 3.618-2.951 0-5.354-1.618-5.354-3.618 0-2 2.396-3.618 5.354-3.618 2.951 0 5.354 1.618 5.354 3.618zm-8.243-32.132c.347 1.472-1.576 3.195-4.299 3.84-2.722.646-5.208-.027-5.562-1.5-.347-1.479 1.576-3.201 4.292-3.847 2.729-.639 5.222.028 5.569 1.507z" fill="#FFCC4D"/>
    <path d="M156.479 124.687c.625.487 1.688-5.062 1.528-6.791 0-.118-.201-3.792.576-6.417.48-.889.507-7.521-.229-9.264.584-.048 1.285-.236 1.368-.944-2.694.993-3.326-5.674-5.916-9.507-2.514-3.84-5.632-6.076-8.889-8.41.243-.653.632-1.264 1.125-1.875-3.993 2-10.216-5.243-19.41-4.701-2.062.201-3.042.326-3.569 1.59-1.716.139-3.459.528-3.459 2.785 0 .541.493 1.528 1.591 1.534 1.5.438 2.722.098 3.743 2.195l.27 2.167s-1.34-1.716-2.076-1.987l.451-.923c-.694-.403-1.923-.076-1.923-.076s-2.674-1.25-4.82-.917l-.416-1.736c-.375 1.07-1.216 1.014-1.334 2.02-.236-.722-.548-1.618-.77-2.34-.757 1.028-.535 2.14-.806 3.209-.292.25-.889.257-1.042-.43-.076-.848-.18-.925-.18-1.931-.542.95-1.195 1.416-1.41 3.048l-.576-1.805c.02 2.132-1.813 3.402-3.549 4.91-.493.902.076.909.118 1.374l.917.459 1.646-.118c.27.34.048.368.763.583 1.917.535 4.306-1.764 6.181 1.854-.861.722-1.729 2.41-1.451 2.73.347 0-.695.485.708.04-1.458 1.418-2.444 3.286-2.444 3.397-.167.403.583-.056.43.673l.347-.041c-3.326 3.597-.111 7.465-.465 9.541.556.896.625-.021 1.319-.111.584 2.556 2.264 4.104 3.292 6.125l-2.167.021c.049.958.917 1.868 1.605 2.708l-1.452.459c-1.034.528-1.715 1.09-2.444 1.903-.479 1.166 2.312 1.444 3.66 1.652l-.049 1.41c2.104.201 4.535-.424 4.535-.542l.527-.409 1.188.652c.396 0 1.014-1.583.729-2.798.764.909 1.486 2.375 2.25 3.291l.715-.097c.653 1.035 1.549 2.063 2.202 3.097l.729.278c.424-.146.785-.194 1.014-1.028l.333.584 1.153-.792.805-.16.605.987c.354-.132.701-.903.722-1.723.361.716.458.66.722.847l.535-1.124 2.882 2.694 2.18.125c.778.528 2.91.861 3.271.007 1.75.75 3.813-.097 3.708-.931 1.612.639 4.091.209 4.091.105.298-.035 1.062-.785.34-1.348-5.326-3.708-13.222-9.847-16.271-11.326 0-1.097-.826-5.049-1.715-6.132l.722-1.208c2.077 1.937 2.827 1.75 3.931 2.055 1.18.938 1.59 2.361 2.771 3.66l1.055.194c-.729-1.854-1.639-3.652-3.847-6.062 1.139.569 3.028 2.09 4.292 3.194.833 1.396 1.076 2.507 1.84 4.257.555.354 1.125 1.653 1.048.577-.132-2.021-1.555-5.223-1.555-5.452 2.264 1.792 2.236 4.584 2.923 6.285.577.861.869 2.014 1.119 1.743l-.667-5.25-.389-1.924c1.674.966 2.271 4.646 3.056 9.063 0 .701.284 1.472.243 1.923.361.445.77 1.674.763.945 0 0 0-7.181-.493-8.826-.125-.882.209-2.313.209-2.313.611 2.979 1.264 6.208 1.882 9.181v2.187l.916.924c.174-1.806.382-3.597.563-5.389l-.688-6.424v-1.833c-.014-.646.591-.528.973.208.09 1.577.09 2.806.152 4.375.271 1.792.459 3.104.591 5.389.076 1.847.159 6.278.548 6.201z"
          fill="#C1694F"/>
</svg>
