<svg width="250" height="250" viewBox="0 0 250 250" fill="none" xmlns="http://www.w3.org/2000/svg">
<path d="M27.7778 34.7222C12.4375 34.7222 0 47.1597 0 62.5V187.5C0 202.84 12.4375 215.278 27.7778 215.278H76.3889V34.7222H27.7778Z" fill="#006847"/>
<path d="M222.222 34.7222H173.611V215.278H222.222C237.563 215.278 250 202.84 250 187.5V62.5C250 47.1597 237.563 34.7222 222.222 34.7222Z" fill="#CE1126"/>
<path d="M76.3889 34.7222H173.611V215.278H76.3889V34.7222Z" fill="#EEEEEE"/>
<path d="M159.722 125C159.722 144.181 144.181 159.722 125 159.722C105.826 159.722 90.2778 144.181 90.2778 125H83.3333C83.3333 148.007 101.986 166.667 125 166.667C148.014 166.667 166.667 148.007 166.667 125H159.722Z" fill="#A6D388"/>
<path d="M94.0486 140.757C93.4097 139.507 92.118 138.812 90.7986 138.875C90.3194 138.889 89.8264 139.014 89.375 139.243C87.6597 140.111 86.9861 142.208 87.8541 143.917C88.4791 145.146 89.1666 146.347 89.9097 147.5V147.507L89.9375 147.549V147.556L89.993 147.632V147.639L90.0139 147.681L90.0208 147.694L90.0486 147.729V147.736L90.0694 147.771V147.785L90.0902 147.819L90.0972 147.833L90.118 147.868L90.125 147.882L90.1458 147.91L90.1597 147.931L90.1736 147.951L90.1805 147.972L90.2014 148.007L90.2083 148.014L90.2222 148.035L90.243 148.076L90.25 148.09L90.2708 148.125L90.2777 148.139L90.3264 148.208V148.215L90.3611 148.264V148.271C90.7222 148.806 91.0902 149.319 91.4791 149.84C92.1875 150.799 93.2986 151.271 94.4027 151.229C95.0694 151.201 95.743 150.979 96.3194 150.542C97.8611 149.403 98.1805 147.222 97.0347 145.687C95.9375 144.118 94.9166 142.465 94.0486 140.757V140.757ZM90.5972 129.771C90.4514 128.687 90.3472 127.583 90.2986 126.458C90.2639 125.625 90.2639 124.806 90.2777 123.986C90.3333 122.076 88.8264 120.472 86.9097 120.417L86.6597 120.424C84.8541 120.5 83.3889 121.958 83.3402 123.792C83.3264 124.514 83.3194 125.229 83.3333 125.951V126.576L83.3402 126.611V126.806L83.3472 126.826L83.3402 126.84V126.861L83.3472 126.875V127.076L83.3541 127.097V127.174L83.3611 127.306L83.368 127.368V127.444C83.4305 128.556 83.5416 129.66 83.6875 130.757C83.9375 132.542 85.5 133.812 87.2639 133.743C87.375 133.736 87.4861 133.729 87.5902 133.708C89.5416 133.431 90.8611 131.674 90.5972 129.771V129.771ZM127.361 159.632L127.319 159.639L126.458 159.694C124.812 159.757 123.146 159.715 121.528 159.549C121.361 159.528 121.201 159.528 121.035 159.535C119.333 159.604 117.903 160.924 117.729 162.66C117.542 164.562 118.931 166.264 120.833 166.458L121.701 166.535L121.729 166.542L121.743 166.535L121.764 166.542H121.778L121.819 166.549H121.861L121.882 166.556H121.889L121.931 166.549L121.951 166.556H121.986L122.028 166.562L122.062 166.569H122.153L122.194 166.576H122.285C123.34 166.646 124.403 166.681 125.472 166.66H125.743L125.792 166.653L125.833 166.66H125.937L125.972 166.653H126.104L126.146 166.646H126.153L126.187 166.653L126.194 166.646L126.236 166.653H126.243L126.278 166.646H126.333L126.375 166.639H126.417L126.424 166.646L126.465 166.639H126.514L126.549 166.632H126.687L126.722 166.625H126.75L126.778 166.618L126.806 166.625H126.84L126.868 166.618H126.903C127.194 166.611 127.493 166.583 127.785 166.569C129.653 166.417 131.056 164.799 130.931 162.917C130.882 161.028 129.25 159.562 127.361 159.632V159.632ZM110.424 156.521C108.681 155.715 106.986 154.75 105.396 153.667C104.757 153.222 104.014 153.035 103.292 153.062C102.236 153.104 101.208 153.618 100.562 154.569C99.4861 156.146 99.8819 158.312 101.465 159.389L101.472 159.396L101.514 159.417L101.556 159.458L101.597 159.486L101.639 159.521C103.486 160.778 105.444 161.882 107.486 162.826C108 163.069 108.549 163.167 109.083 163.146C110.347 163.09 111.528 162.361 112.09 161.139C112.917 159.396 112.16 157.326 110.424 156.521V156.521ZM145.354 153.757C144.764 153.785 144.167 153.965 143.632 154.312C142.014 155.34 140.292 156.25 138.535 157C136.764 157.736 135.931 159.771 136.681 161.549C137.264 162.917 138.618 163.715 140.014 163.667C140.424 163.653 140.819 163.556 141.215 163.403L142.146 162.986H142.16L142.201 162.958L142.215 162.951L142.243 162.937H142.271L142.299 162.924L142.312 162.91L142.354 162.903L142.368 162.889L142.389 162.875L142.424 162.861L142.444 162.854L142.479 162.84L142.493 162.833L142.528 162.819L142.542 162.812C142.562 162.799 142.562 162.792 142.576 162.792L142.59 162.785L142.632 162.764H142.646L142.687 162.743L142.729 162.722L142.743 162.715L142.778 162.694L142.792 162.687L142.833 162.667L142.84 162.66L142.889 162.653L142.937 162.625L142.951 162.618L142.979 162.597H142.993L143.035 162.569L143.09 162.556L143.132 162.528H143.139L143.187 162.5L143.194 162.493L143.292 162.451L143.34 162.431L143.437 162.375L143.493 162.354L143.535 162.333H143.542L143.639 162.278V162.271L143.681 162.257H143.687L143.84 162.174L143.889 162.16L143.986 162.104L144.035 162.076H144.042C144.049 162.069 144.062 162.062 144.09 162.062C144.104 162.042 144.118 162.035 144.132 162.028L144.187 162L144.229 161.979V161.972L144.326 161.931H144.333L144.382 161.903L144.389 161.896L144.424 161.875H144.431L144.479 161.847L144.521 161.826H144.535L144.576 161.799V161.792L144.625 161.771L144.632 161.764L144.674 161.743V161.736L144.715 161.722L144.729 161.715L144.757 161.694L144.778 161.687L144.812 161.667L144.826 161.66L144.861 161.639L144.875 161.632L144.917 161.618C144.91 161.611 144.917 161.611 144.924 161.611L144.965 161.59L144.979 161.583L145.007 161.562L145.021 161.556L145.062 161.535L145.076 161.528C145.076 161.514 145.09 161.514 145.104 161.507L145.125 161.5L145.153 161.486L145.174 161.472L145.201 161.458L145.222 161.444L145.243 161.431L145.264 161.41L145.299 161.403L145.326 161.396L145.34 161.382L145.368 161.368L145.396 161.347L145.41 161.34L145.437 161.326L145.465 161.306L145.486 161.292C145.5 161.299 145.507 161.292 145.521 161.285L145.535 161.271L145.562 161.257L145.583 161.243L145.604 161.229L145.632 161.215L145.66 161.194L145.674 161.187C145.687 161.181 145.715 161.181 145.729 161.167C145.715 161.16 145.715 161.16 145.729 161.16L145.757 161.146L145.806 161.111L145.819 161.104L145.868 161.083V161.076L145.951 161.035L146.007 161C146.049 160.972 146.09 160.944 146.146 160.924H146.153C146.59 160.66 147.042 160.389 147.472 160.111C149.083 159.069 149.562 156.937 148.528 155.319C147.729 154.285 146.549 153.708 145.354 153.757V153.757ZM163.208 121.687L163.042 121.694C161.194 121.771 159.722 123.285 159.715 125.153C159.715 127.076 159.542 129.021 159.215 130.91C158.889 132.792 160.167 134.597 162.049 134.917C162.299 134.958 162.542 134.979 162.785 134.972C164.382 134.903 165.785 133.729 166.069 132.076V132.042L166.076 132.028L166.083 132.014L166.076 132L166.083 131.986V131.972L166.09 131.958V131.937L166.097 131.924V131.861C166.111 131.854 166.111 131.84 166.111 131.833V131.792C166.257 130.896 166.382 129.993 166.472 129.076L166.465 129.069L166.472 129.049V129.042L166.479 129.014V128.937L166.493 128.917V128.91L166.486 128.889V128.875L166.493 128.854V128.826L166.507 128.819L166.493 128.799V128.771C166.507 128.764 166.507 128.757 166.507 128.75V128.618L166.521 128.597V128.59C166.611 127.458 166.667 126.312 166.667 125.153C166.667 123.257 165.125 121.694 163.208 121.687V121.687ZM160.132 140.41C159.549 140.09 158.917 139.951 158.306 139.979C157.132 140.028 156.021 140.674 155.41 141.771C154.479 143.451 153.403 145.076 152.194 146.576C151 148.083 151.257 150.264 152.75 151.451C153.444 152 154.257 152.236 155.062 152.201C156.035 152.16 156.979 151.715 157.632 150.896C158.437 149.882 159.208 148.819 159.924 147.736C159.937 147.687 159.972 147.639 160 147.597L160.007 147.59L160.035 147.549V147.542L160.062 147.493C160.076 147.479 160.09 147.465 160.09 147.451L160.097 147.458L160.125 147.417V147.41C160.139 147.396 160.146 147.375 160.146 147.361L160.16 147.354L160.187 147.312V147.306C160.201 147.299 160.201 147.285 160.208 147.271L160.215 147.264L160.243 147.222L160.25 147.208L160.264 147.174L160.285 147.16L160.299 147.125H160.312L160.326 147.083L160.333 147.069L160.361 147.042L160.368 147.028C160.375 147.014 160.375 147 160.389 146.993L160.396 146.972L160.424 146.951C160.424 146.944 160.424 146.937 160.437 146.931V146.903L160.458 146.889L160.479 146.854L160.486 146.84L160.507 146.799L160.521 146.785L160.535 146.757L160.549 146.736C160.549 146.729 160.549 146.722 160.562 146.715C160.562 146.708 160.562 146.701 160.576 146.694L160.597 146.66L160.604 146.639L160.618 146.618L160.632 146.597C160.646 146.59 160.646 146.583 160.646 146.576C160.66 146.569 160.66 146.562 160.66 146.549L160.674 146.528L160.694 146.5L160.715 146.472V146.451L160.729 146.431L160.75 146.403L160.771 146.382V146.361L160.799 146.326V146.306C160.812 146.299 160.819 146.292 160.819 146.278L160.833 146.264L160.847 146.243L160.868 146.208L160.882 146.187V146.174L160.91 146.139C160.91 146.132 160.91 146.125 160.924 146.118L160.931 146.097L160.951 146.069L160.965 146.042L160.979 146.021C160.986 146.014 160.979 146 160.993 145.993C160.993 145.986 160.993 145.979 161.007 145.979L161.021 145.944L161.035 145.931L161.049 145.889L161.062 145.882L161.076 145.854L161.09 145.84L161.104 145.806L161.118 145.792L161.132 145.75C161.146 145.743 161.132 145.736 161.132 145.736L161.16 145.701L161.167 145.687L161.194 145.653V145.646L161.215 145.604L161.229 145.59L161.243 145.549V145.542L161.278 145.507L161.299 145.465V145.458L161.326 145.41L161.34 145.403L161.514 145.076C162.41 143.451 161.812 141.34 160.132 140.41V140.41Z" fill="#5C913B"/>
<path d="M125 152.778C136.506 152.778 145.833 149.669 145.833 145.833C145.833 141.998 136.506 138.889 125 138.889C113.494 138.889 104.167 141.998 104.167 145.833C104.167 149.669 113.494 152.778 125 152.778Z" fill="#55ACEE"/>
<path d="M128.472 152.778C134.225 152.778 138.889 149.669 138.889 145.833C138.889 141.998 134.225 138.889 128.472 138.889C122.719 138.889 118.056 141.998 118.056 145.833C118.056 149.669 122.719 152.778 128.472 152.778Z" fill="#FFCC4D"/>
<path d="M132.757 147.736C132.194 147.736 131.625 147.597 131.097 147.312C129.41 146.396 128.785 144.285 129.701 142.604C130.812 140.562 131.979 138.708 133.188 137.083C132.222 137.125 131.222 137.146 130.201 137.146C128.285 137.146 126.535 135.583 126.535 133.667C126.535 131.75 127.889 130.194 129.813 130.194L130.382 130.201C132.437 130.201 134.549 130.076 136.437 129.903C137.535 129.785 138.583 130.229 139.285 130.986C139.382 130.91 139.479 130.833 139.583 130.771C140.278 130.312 140.924 129.944 141.528 129.653C141.937 129.333 142.437 129.104 142.993 129L143.243 128.951C144.549 128.528 145.465 128.472 145.833 128.472C146.937 128.472 147.972 128.993 148.625 129.882C149.278 130.771 149.472 131.91 149.146 132.965C148.576 134.812 147.306 135.229 145.076 135.674C144.66 135.833 144.09 136.111 143.424 136.562C142.118 137.417 140.424 137.285 139.264 136.326C140.215 137.555 140.257 139.319 139.25 140.59C138.069 142.097 136.91 143.889 135.806 145.924C135.181 147.083 133.986 147.736 132.757 147.736V147.736ZM122.896 136.701C122.75 136.701 122.59 136.694 122.438 136.674C119.84 136.326 117.375 135.812 115.104 135.139C113.264 134.59 112.215 132.66 112.764 130.819L112.806 130.68L112.722 130.84C111.785 132.514 109.667 133.118 107.993 132.174C105.632 130.854 103.514 129.264 101.694 127.444C100.34 126.09 100.34 123.889 101.694 122.535C103.049 121.18 105.25 121.18 106.604 122.535C107.972 123.903 109.576 125.104 111.382 126.111C112.868 126.944 113.507 128.708 112.972 130.257C113.701 128.778 115.431 127.993 117.069 128.479C118.986 129.049 121.09 129.486 123.319 129.785C125.222 130.035 126.562 131.778 126.312 133.68C126.111 135.43 124.611 136.701 122.896 136.701V136.701ZM105.868 120.458C102.91 120.458 99.0833 119.312 96.7639 116.576C93.2083 112.382 91.1181 107 91.4375 102.875C91.5208 101.771 90.4444 100.882 89.3889 100.604C88.7847 100.444 87.7222 100.347 87.2222 101.424C86.8125 102.299 85.7847 102.667 84.9167 102.271C84.0486 101.868 83.6667 100.833 84.0694 99.9652C85.1528 97.611 87.5833 96.5624 90.2639 97.243C92.75 97.8888 95.1319 100.125 94.8958 103.146C94.6458 106.354 96.4653 110.847 99.4097 114.326C100.958 116.16 103.653 116.903 105.486 116.972C106.979 117.049 107.736 116.708 107.896 116.562C107.507 115.639 102.361 112.93 100.167 111.778C98.2986 110.799 97.7431 109.451 97.6042 108.5C97.1389 105.34 100.382 102.139 103.521 99.0555C104.625 97.9652 105.674 96.9374 106.243 96.1805C106.889 95.3263 106.785 94.7569 106.66 94.4027C106.181 93.1041 104.104 91.8194 101.604 91.2638C99.2917 90.7499 97.7292 89.6319 96.9653 87.9374C95.9583 85.7083 96.4931 82.7916 98.5903 79.0138C99.0556 78.1666 100.118 77.8749 100.951 78.3402C101.792 78.8055 102.09 79.861 101.625 80.7013C99.6458 84.2569 99.8403 85.868 100.132 86.5138C100.424 87.1527 101.167 87.6041 102.354 87.868C105.292 88.5208 108.826 90.2638 109.91 93.1944C110.528 94.868 110.215 96.6735 109.021 98.2638C108.299 99.2291 107.16 100.347 105.958 101.535C104.167 103.299 100.826 106.583 101.042 108C101.083 108.292 101.465 108.549 101.785 108.708C107 111.444 110.465 113.424 111.174 115.847C111.424 116.701 111.319 117.562 110.882 118.34C110.208 119.514 108.806 120.236 106.819 120.417C106.521 120.444 106.194 120.458 105.868 120.458V120.458Z" fill="#5C913B"/>
<path d="M135.417 131.944C137.334 131.944 138.889 128.835 138.889 125C138.889 121.165 137.334 118.056 135.417 118.056C133.499 118.056 131.944 121.165 131.944 125C131.944 128.835 133.499 131.944 135.417 131.944Z" fill="#FFCC4D"/>
<path d="M120.083 119.361C120.083 121.361 117.687 122.979 114.729 122.979C111.778 122.979 109.375 121.361 109.375 119.361C109.375 117.361 111.771 115.743 114.729 115.743C117.68 115.743 120.083 117.361 120.083 119.361ZM111.84 87.2292C112.187 88.7014 110.264 90.4236 107.541 91.0694C104.819 91.7153 102.333 91.0417 101.979 89.5694C101.632 88.0903 103.555 86.368 106.271 85.7222C109 85.0833 111.493 85.75 111.84 87.2292V87.2292Z" fill="#FFCC4D"/>
<path d="M156.479 124.687C157.104 125.174 158.167 119.625 158.007 117.896C158.007 117.778 157.806 114.104 158.583 111.479C159.063 110.59 159.09 103.958 158.354 102.215C158.938 102.167 159.639 101.979 159.722 101.271C157.028 102.264 156.396 95.5972 153.806 91.7639C151.292 87.9236 148.174 85.6875 144.917 83.3542C145.16 82.7014 145.549 82.0903 146.042 81.4792C142.049 83.4792 135.826 76.2361 126.632 76.7778C124.57 76.9792 123.59 77.1042 123.063 78.3681C121.347 78.5069 119.604 78.8958 119.604 81.1528C119.604 81.6944 120.097 82.6806 121.195 82.6875C122.695 83.125 123.917 82.7847 124.938 84.8819L125.208 87.0486C125.208 87.0486 123.868 85.3333 123.132 85.0625L123.583 84.1389C122.889 83.7361 121.66 84.0625 121.66 84.0625C121.66 84.0625 118.986 82.8125 116.84 83.1458L116.424 81.4097C116.049 82.4792 115.208 82.4236 115.09 83.4306C114.854 82.7083 114.542 81.8125 114.32 81.0903C113.563 82.1181 113.785 83.2292 113.514 84.2986C113.222 84.5486 112.625 84.5556 112.472 83.8681C112.396 83.0208 112.292 82.9444 112.292 81.9375C111.75 82.8889 111.097 83.3542 110.882 84.9861L110.306 83.1806C110.326 85.3125 108.493 86.5833 106.757 88.0903C106.264 88.9931 106.833 89 106.875 89.4653L107.792 89.9236L109.438 89.8056C109.708 90.1458 109.486 90.1736 110.201 90.3889C112.118 90.9236 114.507 88.625 116.382 92.2431C115.521 92.9653 114.653 94.6528 114.931 94.9722C115.278 94.9722 114.236 95.4583 115.639 95.0139C114.181 96.4306 113.195 98.2986 113.195 98.4097C113.028 98.8125 113.778 98.3542 113.625 99.0833L113.972 99.0417C110.646 102.639 113.861 106.507 113.507 108.583C114.063 109.479 114.132 108.562 114.826 108.472C115.41 111.028 117.09 112.576 118.118 114.597L115.951 114.618C116 115.576 116.868 116.486 117.556 117.326L116.104 117.785C115.07 118.313 114.389 118.875 113.66 119.688C113.181 120.854 115.972 121.132 117.32 121.34L117.271 122.75C119.375 122.951 121.806 122.326 121.806 122.208L122.333 121.799L123.521 122.451C123.917 122.451 124.535 120.868 124.25 119.653C125.014 120.562 125.736 122.028 126.5 122.944L127.215 122.847C127.868 123.882 128.764 124.91 129.417 125.944L130.146 126.222C130.57 126.076 130.931 126.028 131.16 125.194L131.493 125.778L132.646 124.986L133.451 124.826L134.056 125.813C134.41 125.681 134.757 124.91 134.778 124.09C135.139 124.806 135.236 124.75 135.5 124.937L136.035 123.813L138.917 126.507L141.097 126.632C141.875 127.16 144.007 127.493 144.368 126.639C146.118 127.389 148.181 126.542 148.076 125.708C149.688 126.347 152.167 125.917 152.167 125.813C152.465 125.778 153.229 125.028 152.507 124.465C147.181 120.757 139.285 114.618 136.236 113.139C136.236 112.042 135.41 108.09 134.521 107.007L135.243 105.799C137.32 107.736 138.07 107.549 139.174 107.854C140.354 108.792 140.764 110.215 141.945 111.514L143 111.708C142.271 109.854 141.361 108.056 139.153 105.646C140.292 106.215 142.181 107.736 143.445 108.84C144.278 110.236 144.521 111.347 145.285 113.097C145.84 113.451 146.41 114.75 146.333 113.674C146.201 111.653 144.778 108.451 144.778 108.222C147.042 110.014 147.014 112.806 147.701 114.507C148.278 115.368 148.57 116.521 148.82 116.25L148.153 111L147.764 109.076C149.438 110.042 150.035 113.722 150.82 118.139C150.82 118.84 151.104 119.611 151.063 120.062C151.424 120.507 151.833 121.736 151.826 121.007C151.826 121.007 151.826 113.826 151.333 112.181C151.208 111.299 151.542 109.868 151.542 109.868C152.153 112.847 152.806 116.076 153.424 119.049V121.236L154.34 122.16C154.514 120.354 154.722 118.563 154.903 116.771L154.215 110.347V108.514C154.201 107.868 154.806 107.986 155.188 108.722C155.278 110.299 155.278 111.528 155.34 113.097C155.611 114.889 155.799 116.201 155.931 118.486C156.007 120.333 156.09 124.764 156.479 124.687V124.687Z" fill="#C1694F"/>
</svg>
